<?xml version="1.0" standalone="no"?>
<!DOCTYPE svg PUBLIC "-//W3C//DTD SVG 20010904//EN"
 "http://www.w3.org/TR/2001/REC-SVG-20010904/DTD/svg10.dtd">
<svg version="1.0" xmlns="http://www.w3.org/2000/svg"
 width="1350.000000pt" height="894.000000pt" viewBox="0 0 1350.000000 894.000000"
 preserveAspectRatio="xMidYMid meet">
<metadata>
Created by potrace 1.10, written by Peter Selinger 2001-2011
</metadata>
<g transform="translate(0.000000,894.000000) scale(0.100000,-0.100000)"
fill="#da8816" stroke="none">
<path d="M6582 8569 c2 -7 18 -21 34 -31 16 -9 39 -23 51 -30 12 -7 43 -23 70
-36 26 -13 55 -28 63 -33 8 -5 24 -14 35 -19 11 -6 34 -19 50 -29 17 -11 50
-30 75 -42 25 -13 77 -41 115 -63 39 -23 90 -51 115 -64 25 -12 52 -27 60 -32
8 -5 22 -11 30 -14 8 -4 29 -15 45 -26 17 -11 37 -22 45 -26 8 -3 22 -9 30
-14 8 -5 38 -21 65 -35 67 -35 86 -46 118 -70 l27 -20 3 -453 c2 -352 0 -456
-10 -464 -9 -7 -67 17 -210 87 -109 53 -211 102 -228 110 -16 7 -88 41 -160
75 -144 68 -216 102 -320 150 -38 18 -92 43 -120 57 -110 55 -123 56 -350 49
-115 -4 -322 -11 -460 -16 -281 -9 -662 -34 -757 -50 -35 -5 -92 -10 -128 -10
-36 0 -103 -7 -150 -15 -47 -8 -105 -15 -130 -15 -25 0 -90 -7 -145 -15 -55
-8 -154 -22 -220 -30 -66 -9 -156 -22 -200 -30 -44 -9 -101 -15 -126 -15 -25
0 -68 -7 -95 -15 -27 -8 -67 -15 -89 -15 -22 0 -65 -7 -95 -15 -30 -8 -71 -15
-90 -15 -19 0 -64 -6 -100 -14 -103 -24 -180 -38 -246 -46 -34 -4 -67 -11 -74
-15 -7 -4 -40 -11 -74 -15 -80 -10 -170 -28 -226 -46 -25 -8 -56 -14 -69 -14
-13 0 -44 -6 -70 -14 -59 -19 -124 -35 -181 -46 -62 -12 -111 -34 -135 -62
-31 -35 -86 -156 -116 -253 -5 -16 -13 -39 -18 -50 -5 -11 -17 -47 -26 -80
-10 -33 -24 -78 -31 -100 -8 -23 -14 -50 -14 -62 0 -12 -10 -33 -22 -47 -23
-24 -24 -25 -83 -11 -33 7 -96 23 -140 35 -44 12 -96 26 -115 30 -19 4 -71 17
-115 30 -139 38 -309 82 -345 90 -19 4 -53 12 -75 18 -22 6 -69 18 -105 26
-36 8 -94 21 -130 30 -36 8 -96 22 -135 30 -38 9 -118 27 -177 41 -59 14 -129
30 -155 35 -26 5 -91 19 -143 30 -52 11 -115 25 -140 30 -69 14 -222 49 -247
56 l-23 6 0 -131 c0 -72 1 -131 3 -131 251 -32 426 -56 637 -90 107 -17 236
-37 285 -45 99 -15 368 -59 455 -75 30 -5 143 -24 250 -40 107 -16 227 -35
265 -42 39 -6 97 -14 130 -17 48 -5 61 -10 63 -25 7 -32 -11 -37 -79 -22 -35
9 -100 20 -144 26 -44 6 -120 18 -170 26 -49 8 -135 21 -190 29 -55 8 -145 21
-200 30 -55 9 -147 23 -205 31 -58 8 -148 21 -200 29 -52 8 -138 19 -190 25
-52 6 -102 13 -110 16 -19 7 -161 32 -254 44 -38 5 -76 12 -85 15 -9 4 -56 13
-106 20 -50 8 -105 17 -123 21 l-33 7 3 -59 3 -59 73 -6 c40 -4 80 -10 90 -14
9 -4 50 -11 91 -16 41 -5 78 -14 83 -21 4 -7 7 -78 5 -158 l-2 -145 -29 -3
c-50 -6 -76 6 -76 33 0 14 -9 34 -20 45 -11 11 -20 28 -20 38 0 37 -34 53
-119 59 -68 5 -81 3 -81 -9 0 -12 16 -17 66 -21 49 -3 72 -10 87 -26 12 -11
18 -23 15 -26 -3 -3 -34 -6 -69 -6 -93 -1 -99 -4 -99 -50 l0 -39 43 0 c23 0
69 -7 100 -15 32 -8 84 -15 117 -15 91 0 91 -1 89 -204 -1 -94 -1 -202 1 -241
l3 -70 8 85 c4 47 7 169 8 271 2 281 12 487 26 506 11 15 15 15 30 3 15 -12
16 -55 9 -544 -3 -292 -11 -539 -16 -548 -13 -26 -37 -22 -50 7 -6 14 -14 25
-18 25 -4 0 -15 -11 -24 -25 -9 -14 -23 -25 -30 -25 -33 0 -39 28 -40 212 -1
135 -4 182 -13 185 -10 4 -13 -36 -13 -175 0 -132 -3 -182 -12 -189 -8 -6 -36
-7 -73 -2 -101 13 -145 11 -145 -6 0 -10 11 -15 38 -16 20 -1 51 -5 67 -8 25
-6 19 -9 -37 -15 -56 -7 -68 -12 -68 -26 0 -23 53 -27 510 -41 179 -6 388 -14
465 -19 77 -4 216 -8 309 -9 94 -1 206 -5 250 -11 45 -5 135 -13 201 -17 l120
-8 -2 -39 c-2 -22 -6 -43 -11 -48 -7 -7 -168 -4 -1087 22 -209 5 -464 12 -567
13 l-188 4 0 -306 0 -306 217 2 c120 1 324 8 453 15 129 7 415 13 635 13 431
0 455 -3 440 -48 -4 -12 -10 -44 -14 -72 l-6 -50 -800 -5 c-523 -3 -800 -8
-800 -15 0 -7 275 -12 795 -15 l795 -5 -2 -25 c-2 -14 -6 -59 -10 -100 l-8
-75 -198 -11 c-117 -6 -202 -15 -208 -21 -19 -19 48 -25 222 -22 162 4 179 1
160 -30 -9 -14 -28 -19 -91 -20 -27 -1 -32 -4 -20 -11 8 -6 31 -9 50 -8 20 1
41 -1 47 -5 11 -7 6 -96 -6 -109 -7 -7 -220 -25 -476 -39 -93 -5 -215 -13
-270 -18 -55 -6 -154 -10 -220 -11 -66 0 -148 -4 -183 -9 -34 -5 -142 -12
-240 -16 -248 -8 -262 -10 -262 -41 0 -28 15 -30 101 -14 30 6 169 15 309 20
359 14 762 37 780 44 8 3 98 10 200 16 102 5 200 12 218 16 l32 6 -1 -108 c0
-60 -3 -117 -5 -126 -5 -15 -18 -18 -87 -18 -45 -1 -113 -5 -152 -11 -38 -5
-140 -16 -225 -24 -280 -26 -354 -34 -425 -45 -38 -6 -126 -15 -195 -20 -238
-19 -355 -29 -453 -41 l-97 -12 0 -80 0 -79 57 5 c32 3 130 10 218 16 88 6
189 15 225 20 36 5 97 12 135 16 39 3 102 10 140 15 39 5 122 15 185 21 63 6
178 17 255 25 195 21 409 34 416 26 3 -4 3 -116 1 -248 l-4 -241 -62 -6 c-34
-3 -81 -10 -106 -16 -25 -6 -74 -15 -110 -20 -36 -5 -101 -17 -145 -25 -44 -9
-109 -20 -145 -26 -36 -6 -72 -13 -80 -16 -14 -6 -52 -13 -258 -44 -35 -5 -68
-13 -75 -17 -11 -7 -44 -12 -267 -43 -41 -6 -88 -15 -105 -20 -16 -4 -52 -11
-80 -15 -27 -3 -66 -10 -85 -15 -19 -5 -52 -12 -72 -15 -34 -5 -38 -9 -38 -34
l0 -28 52 13 c29 8 63 14 77 14 25 0 150 22 235 41 26 6 74 15 105 19 31 4 81
12 111 18 30 6 100 18 155 27 55 9 132 23 170 30 39 7 113 21 165 30 52 9 124
23 160 30 133 28 231 45 263 45 17 0 54 7 81 15 28 8 53 12 57 8 4 -5 9 -51
11 -103 l3 -95 -40 -13 c-22 -8 -65 -18 -95 -22 -76 -13 -196 -36 -250 -48
-25 -6 -83 -18 -130 -27 -81 -15 -132 -25 -300 -59 -41 -8 -113 -23 -160 -32
-266 -51 -358 -69 -450 -88 -41 -9 -87 -16 -101 -16 -14 0 -46 -7 -72 -16
l-47 -16 0 -514 c0 -283 2 -514 5 -514 2 0 24 6 47 14 43 14 86 26 228 66 127
35 144 40 190 51 25 5 65 15 90 21 25 6 50 14 55 18 6 4 29 11 52 15 24 4 45
10 48 15 3 5 24 11 48 15 23 3 53 10 67 15 39 13 100 20 100 11 0 -5 -19 -11
-42 -15 -23 -4 -47 -11 -53 -15 -5 -5 -30 -13 -55 -19 -25 -6 -70 -18 -100
-27 -30 -9 -75 -21 -100 -26 -25 -6 -54 -14 -65 -19 -11 -5 -36 -12 -55 -16
-19 -3 -39 -10 -45 -14 -5 -4 -30 -12 -55 -18 -25 -6 -70 -18 -100 -27 -30 -9
-82 -23 -115 -30 -33 -7 -67 -15 -75 -18 -8 -3 -27 -8 -42 -11 -24 -6 -28 -11
-28 -41 l0 -35 36 15 c20 8 47 15 60 15 13 0 65 13 116 29 51 17 120 37 153
46 33 9 78 23 100 31 23 8 51 14 63 14 12 0 39 6 59 14 21 7 65 21 98 30 33 9
80 23 105 31 25 7 60 16 77 20 18 4 35 11 38 16 4 5 15 9 27 9 19 0 141 33
183 49 11 5 40 14 65 20 25 7 70 19 100 27 30 8 80 21 110 29 30 7 80 21 110
30 116 34 130 37 145 31 8 -3 15 -14 15 -25 0 -15 -10 -22 -43 -29 -55 -14
-139 -36 -207 -57 -30 -9 -80 -23 -110 -31 -135 -37 -158 -43 -210 -59 -30 -8
-77 -22 -105 -30 -27 -7 -75 -21 -105 -30 -30 -9 -73 -21 -95 -26 -22 -5 -49
-13 -60 -18 -11 -5 -40 -14 -65 -21 -72 -18 -141 -37 -200 -54 -30 -10 -80
-23 -110 -31 -113 -28 -126 -32 -145 -42 -11 -6 -36 -13 -55 -17 -19 -3 -61
-14 -92 -23 -55 -16 -58 -18 -58 -49 0 -32 0 -32 33 -22 17 5 52 14 77 19 25
6 54 14 65 18 19 8 87 29 220 66 33 10 79 23 103 31 23 8 53 14 66 14 12 0 26
3 30 7 4 4 28 13 54 20 26 8 70 20 97 27 28 8 75 22 105 31 30 9 80 22 110 29
30 8 80 21 110 30 30 9 78 23 105 30 47 13 74 21 205 61 30 9 73 21 95 26 22
5 47 12 55 16 26 11 125 31 133 26 4 -2 7 -18 7 -34 0 -33 -2 -34 -115 -67
-140 -42 -181 -54 -220 -67 -75 -24 -110 -33 -145 -40 -19 -4 -39 -11 -45 -15
-5 -4 -30 -11 -55 -15 -25 -4 -49 -11 -55 -15 -5 -4 -28 -11 -50 -15 -22 -4
-44 -10 -50 -15 -5 -4 -32 -13 -60 -19 -27 -7 -70 -17 -95 -23 -25 -6 -49 -14
-55 -18 -5 -4 -30 -11 -55 -15 -53 -8 -103 -22 -145 -40 -16 -8 -46 -17 -65
-20 -19 -4 -69 -18 -110 -32 -41 -14 -109 -34 -150 -45 -41 -10 -82 -22 -90
-25 -8 -4 -35 -12 -60 -17 -41 -10 -45 -14 -48 -44 -4 -37 3 -39 69 -18 24 7
69 21 99 29 52 15 131 39 355 106 186 56 280 82 324 92 25 5 77 20 115 33 39
13 87 27 106 31 19 4 67 17 105 30 39 13 87 26 107 29 20 4 50 13 65 21 15 8
36 15 45 15 9 0 27 4 40 9 13 5 50 17 83 26 33 9 80 24 103 32 27 10 47 12 53
6 5 -5 14 -35 19 -66 5 -31 16 -67 25 -81 21 -32 84 -62 171 -82 38 -9 96 -22
129 -30 33 -8 101 -22 150 -30 50 -8 126 -21 170 -29 44 -9 125 -22 180 -30
230 -32 264 -37 338 -51 42 -8 95 -14 116 -14 21 0 51 -4 67 -10 16 -5 79 -14
139 -20 182 -19 218 -25 222 -36 2 -6 -27 -24 -64 -40 -36 -16 -249 -121 -472
-233 -223 -112 -442 -221 -486 -243 -44 -22 -87 -43 -96 -48 -9 -5 -61 -32
-115 -61 -163 -86 -254 -154 -254 -190 0 -22 54 -65 93 -74 15 -4 30 -11 32
-16 3 -4 27 -11 53 -15 26 -3 85 -15 132 -26 47 -10 112 -23 145 -29 33 -6 87
-18 120 -27 55 -15 269 -17 2441 -20 l2382 -2 72 67 c39 38 159 160 266 272
147 154 207 210 247 230 57 29 182 149 204 196 7 17 22 44 32 61 10 16 22 41
26 55 4 13 22 56 40 94 25 54 47 82 96 125 35 30 89 78 119 105 30 28 78 70
105 95 46 40 501 476 570 545 107 108 239 254 248 273 6 12 22 25 36 28 85 16
160 77 205 166 10 21 30 45 44 55 46 33 113 93 140 124 19 24 23 35 15 48 -13
22 -57 42 -104 48 -21 3 -40 11 -43 18 -2 7 0 64 6 126 l10 114 64 65 c90 91
94 99 105 204 13 112 2 166 -36 186 -21 11 -25 21 -26 59 -7 282 -6 528 2 543
5 10 16 18 23 18 14 0 46 41 46 60 0 6 -13 4 -31 -6 -37 -19 -57 -7 -40 23 11
21 20 29 136 115 89 66 243 219 280 277 25 40 26 48 16 82 -6 20 -9 44 -5 52
3 10 -2 21 -14 28 -16 10 -18 16 -8 31 9 16 7 22 -9 34 -11 8 -31 18 -45 21
-44 11 -90 44 -90 64 0 30 22 32 108 15 44 -9 97 -16 118 -16 21 0 71 -7 109
-15 39 -8 97 -15 130 -15 33 0 87 -7 120 -15 33 -8 94 -15 135 -15 41 0 113
-7 160 -15 47 -8 128 -15 180 -15 52 0 130 -7 173 -15 43 -8 120 -15 170 -15
51 0 137 -7 191 -15 55 -8 147 -15 205 -15 58 -1 138 -5 176 -11 39 -5 135
-14 215 -18 80 -4 154 -13 165 -18 11 -6 97 -13 190 -16 94 -3 208 -10 255
-16 151 -18 292 -32 430 -41 74 -5 151 -14 170 -19 19 -6 47 -11 62 -11 23 0
28 4 28 24 0 23 -3 24 -102 31 -57 4 -147 13 -200 21 -54 8 -133 14 -175 14
-43 0 -130 7 -193 15 -154 19 -342 35 -530 45 -85 4 -163 8 -172 9 -10 1 -18
6 -18 11 0 17 378 13 447 -5 37 -10 105 -15 193 -15 74 0 153 -5 175 -10 22
-6 103 -13 180 -16 77 -3 154 -10 170 -14 17 -5 74 -12 128 -16 98 -6 99 -6
95 16 -2 19 -10 23 -48 25 -197 10 -424 27 -465 35 -57 12 -307 28 -600 40
-110 4 -218 12 -240 19 -22 6 -96 11 -165 11 -69 0 -165 7 -215 15 -49 8 -128
15 -175 15 -47 0 -148 6 -225 15 -224 23 -426 37 -632 44 -105 3 -194 9 -198
13 -9 9 51 21 73 14 25 -8 40 10 44 54 l3 35 120 6 c66 4 221 7 344 8 141 0
238 5 264 13 35 11 41 10 53 -8 26 -37 48 -54 72 -54 14 0 23 -2 20 -5 -6 -7
-111 -12 -270 -14 -92 -1 -120 -4 -132 -17 -36 -35 -12 -37 358 -30 199 4 485
9 636 12 280 5 314 10 325 45 6 17 33 17 463 14 251 -3 468 -4 482 -4 14 0 34
1 45 1 11 0 30 -3 43 -7 l22 -7 0 508 0 509 -90 0 c-69 0 -93 -4 -100 -15 -8
-12 -11 -12 -28 3 -18 17 -20 17 -36 -8 -22 -34 -49 -32 -93 9 -45 39 -103 51
-152 30 -19 -8 -42 -14 -52 -14 -11 0 -22 -7 -25 -15 -9 -22 -34 -18 -34 6 0
11 -7 27 -15 35 -16 16 -20 44 -7 44 4 0 37 21 73 48 36 26 78 53 95 61 59 27
90 45 124 72 30 23 45 27 103 27 65 0 67 0 67 -24 0 -28 32 -45 95 -49 22 -1
47 -4 55 -6 11 -3 16 5 18 28 3 30 1 32 -35 35 -30 2 -39 8 -44 28 -4 14 -8
21 -8 15 -1 -5 -5 -16 -10 -24 -8 -12 -16 -10 -46 14 -34 26 -42 27 -99 21
-33 -3 -62 -11 -64 -16 -2 -6 -15 -10 -29 -10 -14 0 -45 -13 -70 -30 -24 -16
-53 -30 -64 -30 -10 0 -19 -4 -19 -10 0 -5 -12 -13 -26 -16 -15 -4 -44 -24
-65 -45 -22 -22 -47 -39 -56 -39 -9 0 -24 -7 -33 -15 -15 -14 -24 -13 -88 1
-70 16 -72 16 -109 -7 -59 -35 -74 -51 -94 -96 -12 -28 -25 -42 -40 -45 -35
-5 -33 -24 3 -34 l33 -10 -56 -32 c-55 -31 -59 -32 -178 -32 -73 0 -128 -4
-139 -11 -15 -10 -28 -6 -67 17 -31 18 -60 27 -82 26 -18 -2 -44 5 -58 14 -19
12 -36 14 -76 9 -29 -4 -70 -7 -91 -7 -33 1 -47 -6 -83 -39 -39 -36 -46 -39
-101 -39 -33 0 -68 -6 -79 -13 -11 -7 -42 -22 -70 -32 -67 -24 -101 -51 -122
-94 l-18 -36 -3 46 c-2 37 3 56 25 93 15 25 36 49 45 52 10 3 18 9 18 14 0 5
19 10 43 12 40 3 42 5 52 45 14 57 48 101 82 105 23 2 29 9 31 33 3 33 21 76
37 87 5 4 19 8 31 8 23 0 54 29 54 51 0 10 13 14 51 14 45 -1 54 -4 72 -30 29
-41 36 -45 80 -45 20 0 37 -4 37 -10 0 -5 18 -20 40 -32 33 -19 40 -28 40 -54
0 -36 10 -46 62 -65 30 -10 39 -10 53 1 19 16 29 8 20 -19 -3 -11 -16 -21 -27
-23 -31 -4 -33 -24 -4 -44 18 -11 30 -13 39 -6 6 5 48 12 92 16 63 5 86 3 109
-9 33 -17 46 -8 46 31 0 28 -17 34 -103 34 -81 0 -92 4 -106 43 -7 17 -18 27
-30 27 -11 0 -22 4 -25 8 -8 13 -9 635 -1 655 5 13 19 17 52 17 l45 0 -2 -47
c-3 -65 -2 -73 13 -73 10 0 11 14 6 58 -3 31 -5 58 -3 60 2 3 216 32 237 32 4
0 7 -4 7 -9 0 -9 -33 -22 -65 -24 -15 -2 -21 -10 -23 -38 -2 -26 -9 -39 -25
-47 l-22 -10 25 -6 c14 -4 57 -3 95 1 l70 8 0 65 c0 58 2 65 21 68 36 5 49
-22 34 -68 -14 -44 -11 -54 14 -44 12 4 16 19 16 54 0 31 5 52 16 61 24 20 36
-7 28 -63 -5 -43 -4 -48 13 -48 18 0 19 6 15 53 -4 57 10 82 45 75 15 -3 18
-13 15 -61 -2 -42 1 -57 11 -57 8 0 17 3 21 7 4 4 44 9 89 10 85 4 107 12 84
32 -12 9 -12 17 -2 48 20 57 37 55 34 -3 -3 -43 -1 -49 16 -49 13 0 19 5 16
15 -19 68 -12 97 22 91 4 -1 37 4 73 11 75 14 84 8 84 -53 0 -43 7 -51 31 -39
14 8 16 18 12 43 -9 55 13 67 118 67 l89 0 0 50 c0 48 -1 50 -29 50 -24 0
-108 14 -208 35 -31 7 -53 32 -53 61 0 21 -4 24 -38 24 -47 0 -70 16 -81 55
-7 23 -9 25 -10 9 -2 -36 -21 -40 -135 -35 l-110 6 -8 33 c-6 20 -5 40 2 53 9
15 8 24 -1 35 -21 26 -39 -3 -39 -62 0 -50 -2 -56 -32 -74 -18 -11 -43 -20
-55 -20 -12 0 -39 -7 -60 -16 -73 -32 -228 -105 -243 -115 -29 -18 -64 -30
-79 -27 -21 4 -31 80 -24 184 5 73 4 83 -13 92 -60 31 -405 43 -479 17 -22 -8
-50 -15 -62 -15 -22 0 -23 -4 -23 -67 0 -51 -5 -74 -19 -93 -18 -23 -21 -23
-38 -9 -12 11 -64 21 -166 32 -81 9 -153 19 -158 23 -6 4 -4 13 7 25 17 18 16
20 -2 34 -13 11 -30 14 -54 10 -19 -4 -69 -10 -110 -15 -41 -5 -92 -14 -112
-20 -36 -10 -38 -13 -38 -54 0 -54 -15 -72 -67 -79 -49 -6 -63 5 -63 49 0 30
-2 32 -47 37 -27 3 -52 2 -57 -3 -4 -4 -5 -48 -2 -97 15 -220 16 -289 7 -303
-9 -13 -45 -14 -249 -11 l-239 3 5 -94 c7 -136 8 -135 -138 -143 -113 -7 -144
-16 -124 -34 5 -5 80 -4 167 0 129 7 164 6 186 -5 17 -10 32 -11 42 -5 20 13
73 11 87 -3 8 -8 12 -58 12 -159 0 -140 1 -147 21 -152 20 -5 21 -10 17 -167
l-3 -162 -40 -34 c-48 -41 -75 -51 -86 -33 -5 8 -9 152 -9 321 0 169 -3 309
-8 312 -4 2 -8 -259 -9 -581 -1 -394 -5 -589 -13 -597 -8 -10 -23 -11 -73 -2
-57 10 -62 13 -65 39 -4 31 -26 36 -41 10 -8 -15 -23 -18 -75 -17 -45 0 -67
-4 -70 -13 -6 -14 -42 -18 -49 -5 -5 7 -11 653 -8 825 1 87 19 117 70 117 33
0 48 -14 53 -50 2 -21 10 -26 43 -30 l40 -5 3 -265 c2 -239 8 -297 27 -278 12
11 17 522 6 550 -8 21 -17 27 -48 30 -35 3 -38 6 -43 38 l-5 35 -163 2 c-198
3 -216 9 -220 72 -4 53 25 91 70 91 42 0 98 26 98 46 0 15 -2 15 -25 0 -28
-19 -106 -21 -123 -4 -19 19 -15 82 8 103 17 16 18 20 5 38 -11 16 -15 50 -15
124 0 101 0 102 29 122 16 12 40 21 53 21 13 0 33 7 45 15 11 8 40 16 64 18
24 1 55 9 68 16 16 9 54 13 105 12 88 -2 106 -12 106 -60 1 -23 2 -24 11 -8 6
9 9 34 7 55 l-3 37 -120 3 c-87 2 -128 -1 -150 -11 -73 -34 -103 -45 -145 -55
-102 -24 -99 -21 -98 -114 2 -125 -13 -498 -21 -502 -3 -2 -105 -6 -226 -7
l-220 -3 -19 39 c-19 39 -25 55 -62 145 -10 25 -23 52 -30 60 -6 8 -14 24 -18
36 -15 49 -102 117 -241 189 -27 14 -57 29 -65 34 -8 5 -22 12 -30 16 -8 3
-42 21 -75 40 -33 18 -96 52 -140 75 -101 52 -106 54 -130 68 -11 6 -40 21
-65 32 -25 12 -52 25 -60 30 -8 5 -35 19 -60 31 -25 12 -52 25 -60 30 -8 4
-35 18 -60 30 -25 12 -52 25 -60 30 -8 4 -35 18 -60 30 -25 12 -52 25 -60 30
-8 4 -35 18 -60 29 -25 12 -52 26 -60 31 -8 5 -22 12 -30 15 -93 38 -159 77
-163 97 -9 35 -12 972 -3 975 7 3 76 -81 76 -93 0 -4 14 -24 30 -45 17 -21 30
-41 30 -44 0 -4 53 -77 118 -164 65 -86 135 -182 155 -213 36 -54 94 -115 103
-106 8 7 -22 56 -72 119 -27 34 -60 77 -73 97 -13 20 -28 39 -33 42 -6 4 -15
15 -21 27 -29 49 -102 152 -109 152 -4 0 -8 5 -8 11 0 6 -13 28 -30 49 -16 21
-30 42 -30 48 0 6 -3 12 -7 14 -10 4 -53 65 -53 74 0 3 -12 23 -27 43 -56 73
-57 79 -63 236 l-5 150 -33 3 c-27 3 -34 -1 -43 -25 -6 -15 -8 -44 -5 -63 3
-19 3 -84 -1 -143 l-6 -108 -26 6 c-14 4 -31 11 -37 16 -6 5 -42 25 -80 45
-38 20 -98 52 -134 71 -36 19 -92 50 -125 69 -33 19 -69 39 -80 44 -11 6 -46
25 -78 43 -31 17 -94 52 -139 76 -45 24 -95 51 -112 61 -50 29 -169 87 -195
95 -17 5 -22 4 -19 -6z m-177 -1012 c23 -2 31 -8 38 -32 5 -16 13 -44 18 -61
5 -17 9 -44 9 -60 0 -16 7 -42 15 -58 8 -15 15 -44 15 -62 0 -19 7 -51 15 -71
8 -19 15 -52 15 -72 0 -20 7 -49 15 -65 8 -15 15 -42 15 -60 0 -17 5 -47 11
-66 6 -19 14 -66 19 -103 4 -38 13 -74 19 -80 17 -17 13 99 -4 148 -8 22 -15
56 -15 75 0 19 -7 48 -15 64 -8 15 -15 47 -15 70 -1 22 -7 59 -15 81 -8 22
-15 54 -15 70 0 17 -7 43 -15 59 -8 15 -15 42 -15 60 0 17 -7 44 -15 60 -16
30 -20 82 -7 89 4 3 27 -6 52 -19 25 -12 55 -28 68 -33 12 -6 62 -29 110 -52
91 -42 115 -53 247 -114 44 -20 141 -66 215 -102 74 -36 178 -85 230 -110 159
-76 464 -224 480 -233 8 -5 35 -19 60 -30 25 -12 52 -25 60 -30 8 -5 35 -18
60 -30 25 -11 52 -24 60 -30 8 -5 35 -18 60 -30 25 -11 52 -24 60 -29 14 -9
198 -101 230 -115 8 -4 42 -22 75 -40 33 -19 110 -60 170 -91 61 -31 137 -72
170 -90 33 -19 69 -39 80 -45 11 -6 29 -16 40 -23 100 -62 125 -81 141 -105
26 -38 42 -64 50 -82 4 -8 17 -38 30 -66 47 -103 75 -197 76 -254 0 -13 8 -35
19 -48 10 -14 19 -35 19 -49 0 -20 -3 -22 -19 -13 -11 5 -28 10 -39 10 -11 0
-33 7 -48 15 -16 8 -39 15 -52 15 -13 0 -30 7 -38 15 -9 8 -25 15 -37 15 -12
0 -31 7 -41 15 -11 8 -28 15 -37 15 -10 0 -31 7 -48 15 -17 8 -45 22 -62 30
-17 8 -38 15 -47 15 -9 0 -26 7 -36 15 -11 8 -31 15 -45 15 -14 0 -35 7 -45
15 -11 8 -32 15 -47 15 -15 0 -29 5 -31 11 -2 5 -19 14 -38 19 -47 11 -99 30
-132 46 -14 8 -34 14 -45 14 -10 0 -27 7 -37 15 -11 8 -29 15 -40 15 -12 0
-30 7 -40 15 -11 8 -29 15 -41 15 -12 0 -26 5 -32 11 -6 6 -26 14 -44 19 -38
9 -88 27 -136 47 -17 7 -39 13 -50 13 -10 0 -27 7 -37 15 -11 8 -28 15 -39 15
-10 0 -31 6 -45 14 -37 19 -91 37 -127 44 -16 2 -39 11 -50 18 -11 8 -29 14
-40 14 -11 0 -29 7 -39 15 -11 8 -28 15 -37 15 -10 0 -30 6 -46 14 -35 17 -90
37 -123 43 -14 2 -38 11 -55 18 -87 38 -107 45 -125 45 -10 0 -31 6 -47 14
-38 19 -91 36 -135 46 -21 4 -43 12 -50 17 -7 6 -24 13 -38 16 -14 3 -41 11
-60 17 -158 57 -203 70 -229 70 -33 0 -61 27 -61 60 0 44 -12 90 -22 90 -6 0
-9 -22 -6 -55 3 -33 0 -59 -6 -64 -11 -9 -338 2 -551 18 -159 13 -526 13 -750
1 -99 -6 -279 -14 -400 -19 -121 -5 -231 -14 -245 -19 -38 -16 236 -14 485 3
234 16 849 20 960 5 39 -5 165 -12 280 -16 252 -8 255 -9 255 -108 1 -34 7
-79 15 -101 8 -22 15 -69 15 -105 0 -36 7 -101 15 -145 8 -44 15 -107 15 -140
0 -33 7 -87 15 -120 8 -33 15 -94 15 -135 1 -41 5 -95 11 -120 5 -25 14 -104
19 -176 5 -72 14 -144 20 -158 5 -15 10 -69 11 -119 0 -51 5 -114 10 -142 5
-27 14 -130 19 -227 5 -98 14 -195 19 -215 6 -21 11 -81 11 -133 0 -53 5 -166
11 -253 5 -87 7 -167 4 -177 -3 -11 -42 -37 -93 -62 -112 -55 -166 -91 -197
-132 -38 -50 -49 -184 -40 -506 4 -146 9 -425 10 -620 3 -339 3 -357 -17 -398
-11 -23 -24 -73 -29 -110 -11 -90 -11 -279 1 -301 5 -10 12 -99 16 -199 6
-148 4 -184 -7 -198 -29 -35 -562 -2 -1669 101 -85 8 -231 22 -325 30 -93 8
-235 22 -315 31 -448 47 -555 58 -823 89 -482 55 -631 73 -749 91 -53 8 -114
14 -134 14 -21 0 -74 6 -118 14 -45 8 -137 21 -206 31 -169 22 -278 45 -292
63 -8 10 -13 90 -15 265 -1 139 -6 317 -11 397 -6 80 -10 359 -11 620 -1 553
-1 548 -88 652 -30 35 -56 73 -59 84 -3 12 2 45 10 75 9 29 16 75 16 103 1 28
7 80 15 116 8 36 14 83 15 105 0 22 7 76 15 120 15 81 30 175 60 365 8 58 22
133 30 167 8 34 15 77 15 96 0 20 5 48 11 64 10 28 34 144 48 243 5 30 13 75
19 100 6 25 18 81 27 125 9 44 23 107 30 140 7 33 21 96 30 140 10 44 24 103
31 132 8 28 14 61 14 73 0 12 10 43 21 70 19 44 25 50 58 55 20 3 47 8 61 11
14 3 52 9 84 15 33 5 64 13 70 18 6 5 46 11 89 13 43 3 83 10 90 17 6 6 34 11
62 11 27 1 68 7 90 15 22 8 63 15 90 15 28 0 77 7 108 15 32 8 77 15 100 15
23 1 62 5 87 11 25 5 92 14 150 19 58 5 118 14 133 19 45 17 56 6 54 -57 0
-32 2 -63 7 -70 10 -16 100 -15 211 3 50 8 124 15 165 16 41 0 100 5 130 10
30 4 126 13 212 18 173 11 350 29 388 39 21 6 25 14 28 51 2 29 -2 49 -13 61
-18 20 -15 23 35 47 38 18 -140 17 -330 -2 -85 -8 -225 -22 -310 -30 -85 -9
-198 -20 -250 -26 -52 -6 -144 -15 -205 -20 -60 -5 -123 -14 -139 -19 -16 -6
-59 -10 -95 -11 -36 0 -88 -5 -116 -10 -27 -5 -87 -13 -132 -18 -45 -5 -87
-13 -94 -17 -7 -4 -52 -11 -101 -15 -48 -5 -97 -13 -107 -19 -11 -5 -38 -10
-60 -10 -22 0 -60 -6 -83 -14 -24 -8 -72 -16 -107 -19 -35 -3 -68 -10 -74 -16
-6 -6 -31 -11 -57 -11 -25 0 -57 -6 -71 -14 -42 -21 -114 -29 -127 -13 -11 13
-11 19 23 142 7 28 21 79 30 115 10 36 23 81 30 100 32 91 37 107 44 140 4 19
12 44 18 55 6 11 28 60 48 108 41 95 65 121 129 138 22 5 64 16 91 24 28 8 66
16 85 18 36 4 96 18 186 43 28 8 64 14 81 14 17 0 50 7 73 15 23 8 54 15 69
15 14 0 55 6 91 14 149 34 291 59 425 76 39 5 83 13 98 19 16 6 45 11 65 11
35 0 173 20 282 41 30 6 91 14 135 19 93 9 230 26 330 42 72 11 133 17 360 37
72 6 168 17 215 23 47 6 157 14 245 18 88 5 248 13 355 19 288 17 629 29 680
25 25 -3 58 -5 75 -7z m1252 -360 c-2 -23 -3 -1 -3 48 0 50 1 68 3 42 2 -26 2
-67 0 -90z m0 -129 c-2 -13 -4 -3 -4 22 0 25 2 35 4 23 2 -13 2 -33 0 -45z
m4397 -100 c11 -16 17 -69 22 -183 l7 -160 -27 -32 c-32 -38 -32 -40 -1 -69
l25 -23 0 -248 c0 -136 -4 -255 -10 -263 -5 -9 -5 -19 2 -28 15 -17 -4 -37
-27 -28 -11 4 -14 12 -10 25 4 14 0 21 -14 26 -12 3 -25 4 -30 1 -5 -3 -25 1
-45 9 -25 11 -40 26 -51 51 -15 36 -15 36 -62 29 -27 -3 -59 -13 -72 -22 -17
-11 -26 -12 -35 -3 -8 8 -12 114 -14 355 -2 294 -1 349 13 374 9 18 15 56 15
94 0 40 5 68 13 74 19 16 65 25 162 33 50 4 98 8 107 8 10 1 24 -8 32 -20z
m190 -9 c26 -20 26 -22 26 -145 0 -130 -8 -164 -39 -164 -10 0 -32 -7 -49 -16
-18 -8 -42 -14 -54 -12 -22 3 -23 7 -29 154 -3 83 -9 157 -13 163 -26 42 108
59 158 20z m-954 -74 c18 -22 5 -33 -58 -45 -31 -6 -79 -18 -107 -25 -53 -16
-71 -9 -61 22 7 23 63 45 136 54 30 3 60 7 66 8 6 0 17 -6 24 -14z m-419 -55
c17 0 9 -57 -10 -74 -27 -24 -41 -12 -41 33 0 42 7 54 28 46 7 -3 18 -5 23 -5z
m408 -60 c1 -14 8 -28 15 -32 6 -4 89 -8 183 -8 171 0 173 0 178 -22 3 -13 4
-174 3 -358 l-3 -334 -22 -12 c-39 -19 -63 -46 -63 -70 0 -17 -15 -35 -50 -61
-27 -20 -50 -41 -50 -46 0 -15 -65 -35 -130 -38 l-65 -4 -3 214 c-1 132 -6
219 -13 227 -7 8 -11 108 -11 279 -1 146 -5 268 -10 271 -13 9 2 25 20 22 10
-2 19 -14 21 -28z m-69 -496 c3 -247 9 -457 14 -467 7 -14 1 -20 -28 -32 -19
-8 -51 -15 -70 -15 -20 0 -55 -7 -78 -15 -24 -8 -63 -15 -88 -17 l-45 -3 -3
457 c-2 503 -4 488 59 488 16 0 45 6 63 14 18 7 53 17 77 21 24 4 51 11 59 16
8 5 20 7 25 5 6 -2 12 -165 15 -452z m-333 -105 c-1 -345 -5 -463 -14 -466 -7
-3 -11 8 -11 29 1 18 0 230 -1 470 -2 241 1 443 5 449 20 33 24 -56 21 -482z
m-10689 415 c43 -12 22 -24 -42 -24 -81 0 -133 10 -114 21 15 10 122 12 156 3z
m12761 -1 c20 -5 22 -10 17 -41 -7 -45 -20 -53 -81 -50 -48 3 -50 4 -56 38 -5
20 -3 40 3 47 11 14 77 17 117 6z m-12601 -32 c10 -6 8 -10 -8 -14 -29 -8
-120 3 -120 14 0 11 111 11 128 0z m6442 -11 c19 -7 49 -18 65 -25 51 -20 132
-45 148 -45 8 0 28 -6 44 -14 26 -13 49 -22 143 -56 19 -6 51 -16 70 -20 45
-10 97 -28 133 -46 16 -8 39 -14 51 -14 12 0 27 -5 33 -11 6 -6 26 -14 44 -19
46 -11 98 -30 131 -46 14 -8 35 -14 45 -14 10 0 27 -6 38 -14 11 -7 31 -16 45
-19 14 -3 50 -15 80 -27 30 -12 71 -26 90 -30 42 -10 97 -29 125 -43 11 -6 33
-14 50 -18 16 -4 55 -17 85 -29 30 -12 64 -24 75 -27 11 -3 34 -11 50 -18 41
-17 94 -35 134 -45 18 -5 38 -13 44 -19 6 -6 19 -11 28 -11 9 0 30 -7 45 -15
16 -8 38 -15 49 -15 11 0 29 -7 39 -15 11 -8 29 -15 40 -15 12 0 30 -7 40 -15
11 -8 28 -15 39 -15 10 0 31 -6 45 -14 50 -26 100 -46 119 -46 10 0 27 -7 37
-15 11 -8 29 -15 40 -15 12 0 30 -7 40 -15 11 -8 32 -15 46 -15 14 0 30 -4 36
-9 9 -9 69 -33 130 -52 47 -14 84 -56 84 -93 -1 -28 -2 -29 -14 -13 -7 9 -16
17 -20 17 -4 0 -14 7 -22 15 -9 8 -26 15 -40 15 -13 0 -24 4 -24 10 0 5 -17
12 -37 16 -21 4 -41 11 -44 16 -7 10 -50 12 -99 3 -31 -6 -33 -5 -17 8 28 23
20 29 -34 22 -48 -7 -51 -6 -45 13 6 16 1 20 -26 25 -18 2 -40 1 -49 -4 -33
-17 -34 1 16 -469 8 -74 21 -207 30 -295 27 -274 34 -342 41 -359 13 -33 40
-37 167 -26 204 18 481 29 491 19 12 -11 24 -94 36 -244 5 -66 14 -151 19
-190 10 -81 15 -909 5 -960 -4 -24 -12 -35 -24 -35 -21 0 -30 42 -30 140 -1
82 -32 225 -58 259 -10 14 -28 27 -40 29 -70 11 -115 -151 -157 -563 -34 -342
-33 -336 -56 -369 -12 -17 -58 -60 -102 -96 -44 -36 -87 -72 -96 -81 -9 -8
-36 -30 -61 -49 -25 -18 -49 -38 -55 -44 -10 -12 -115 -100 -290 -245 -55 -45
-134 -111 -175 -145 -163 -136 -240 -196 -250 -196 -13 0 -13 33 1 85 6 22 14
69 19 105 5 36 13 90 19 120 25 140 9 443 -30 595 -6 22 -13 54 -16 72 -3 18
-11 38 -19 44 -8 6 -14 17 -14 23 0 18 -72 91 -103 104 -34 15 -113 16 -122 2
-3 -5 -14 -10 -24 -10 -10 0 -25 -7 -32 -17 -13 -15 -11 -16 16 -9 74 16 106
18 137 6 38 -15 86 -56 99 -85 5 -11 13 -27 18 -35 13 -22 37 -115 52 -195 7
-38 14 -168 16 -288 4 -213 4 -219 -19 -255 l-23 -37 -7 260 c-7 268 -15 334
-51 444 -17 51 -28 69 -60 92 -50 36 -72 36 -128 0 -86 -54 -162 -189 -228
-406 -67 -220 -93 -369 -126 -720 -25 -264 -51 -431 -72 -458 -16 -22 -105
-94 -173 -139 -14 -9 -47 -33 -75 -53 -190 -137 -234 -159 -221 -112 7 26 12
74 27 262 6 83 16 147 24 158 14 20 40 37 85 57 14 6 39 22 57 36 17 13 35 24
39 24 6 0 130 72 174 100 8 6 25 14 38 20 24 10 27 31 13 110 l-8 45 -2 -50
c-1 -27 -7 -60 -14 -72 -7 -12 -48 -41 -92 -64 -92 -48 -119 -63 -160 -89 -16
-11 -37 -23 -45 -27 -8 -4 -27 -16 -43 -27 -19 -14 -30 -17 -38 -9 -11 11 -14
889 -3 916 4 11 143 86 204 111 8 3 22 10 30 15 8 5 35 18 60 30 66 32 132 69
149 85 10 8 29 12 49 9 29 -5 32 -3 32 22 0 23 -3 25 -22 19 -13 -3 -30 -13
-39 -20 -8 -8 -20 -14 -25 -14 -8 0 -299 -140 -334 -161 -37 -22 -85 -39 -97
-35 -7 3 -13 17 -13 31 0 35 -24 79 -56 102 -26 19 -26 19 -11 69 9 27 18 91
22 143 3 52 11 116 16 143 6 27 8 76 4 111 -3 34 -8 220 -10 412 -4 367 -21
785 -35 870 -6 42 -8 33 -9 -61 -1 -76 -5 -115 -13 -121 -7 -6 -40 -17 -73
-26 -33 -8 -70 -19 -82 -22 -39 -12 -46 22 -54 272 -4 128 -11 239 -15 245 -5
7 -11 92 -15 188 -4 96 -12 188 -18 203 -6 16 -11 81 -12 145 0 64 -4 140 -10
167 -5 28 -14 108 -19 179 -5 71 -14 145 -20 165 -5 20 -10 74 -10 121 0 47
-7 112 -15 143 -8 32 -15 93 -15 135 -1 42 -7 106 -15 142 -8 36 -15 88 -15
115 0 28 -5 68 -11 90 -13 49 -28 207 -22 218 7 11 66 4 113 -13z m-6238 -30
c49 -11 179 -31 353 -55 66 -9 147 -21 180 -27 33 -6 94 -14 135 -19 41 -4
102 -12 135 -18 121 -21 202 -33 286 -41 47 -5 97 -14 113 -19 15 -6 49 -11
75 -11 26 0 73 -7 104 -15 32 -8 70 -15 85 -15 50 0 54 -9 41 -86 -14 -86 -34
-127 -57 -120 -51 16 -117 25 -202 28 l-95 3 -5 -117 c-3 -64 -8 -120 -12
-124 -5 -4 -17 1 -28 11 -17 16 -20 31 -20 114 0 53 -4 102 -9 110 -16 25 -22
-7 -20 -100 1 -49 -3 -95 -8 -100 -6 -6 -20 -4 -39 6 -16 8 -54 15 -84 15 -30
0 -77 7 -104 15 -53 16 -186 21 -186 6 0 -13 27 -21 73 -21 23 0 64 -7 91 -15
27 -8 70 -15 96 -15 26 0 64 -7 83 -15 20 -8 52 -15 70 -15 19 0 52 -6 73 -13
22 -8 78 -17 126 -20 47 -4 104 -13 125 -20 33 -11 38 -16 36 -42 -1 -17 -8
-50 -14 -73 l-12 -44 -86 5 c-47 3 -119 10 -158 16 -40 7 -101 11 -135 9 l-63
-3 0 -160 c0 -88 -4 -166 -9 -173 -6 -10 -24 -12 -75 -6 -110 11 -105 0 -98
194 7 193 8 191 -75 194 -53 1 -53 1 -52 -29 1 -16 3 -100 5 -185 l3 -155
-127 -3 c-122 -3 -126 -2 -138 20 -15 28 -9 224 7 250 3 4 2 19 -2 33 -6 26
-7 25 -26 -17 -16 -35 -19 -62 -17 -148 3 -98 1 -105 -16 -105 -18 0 -19 7
-17 85 6 193 22 259 58 229 19 -16 28 9 15 43 -8 22 -17 26 -83 33 -40 4 -86
8 -103 9 l-30 1 3 -196 c3 -168 2 -198 -11 -205 -9 -5 -65 -8 -126 -6 l-111 3
2 347 3 347 65 -3 c36 -1 106 -9 155 -17 167 -27 260 -38 380 -45 66 -5 140
-13 165 -19 25 -5 71 -10 102 -11 31 0 87 -7 124 -16 73 -16 104 -13 85 10
-13 16 -104 35 -181 39 l-55 2 -3 68 c-3 62 -1 68 20 76 27 10 136 -2 179 -19
23 -10 33 -10 42 -1 24 24 -17 43 -115 52 -51 5 -100 10 -108 11 -48 5 -50 2
-50 -81 0 -44 -4 -82 -9 -85 -13 -9 -32 19 -25 38 4 10 0 18 -10 22 -21 8 -21
52 0 75 23 26 11 51 -23 47 -22 -2 -27 -8 -25 -23 15 -86 17 -141 8 -147 -23
-16 -31 1 -34 70 -4 108 -28 92 -34 -23 l-3 -50 -42 -3 c-47 -3 -38 -13 -88
103 -8 20 -15 42 -15 50 0 8 -9 29 -20 48 -20 33 -23 35 -95 41 -41 4 -88 12
-105 18 -39 13 -51 3 -53 -43 -2 -33 -3 -34 -47 -35 -25 -1 -50 -2 -57 -2 -7
-1 -13 -24 -15 -59 l-3 -58 -42 1 c-71 1 -73 7 -73 173 0 120 3 151 17 170 13
19 14 28 4 42 -13 23 -3 24 61 9z m11589 -42 c1 -10 0 -553 -1 -620 0 -5 -7
-8 -15 -8 -17 0 -16 -26 -15 349 0 151 3 278 6 283 8 12 24 10 25 -4z m394 -7
c3 -5 1 -13 -5 -16 -15 -9 -43 3 -35 15 8 13 32 13 40 1z m-1745 -70 c15 -28
13 -193 -2 -213 -12 -15 -22 -15 -108 -2 -52 7 -138 18 -189 24 -127 14 -141
24 -141 100 0 32 4 70 10 84 l10 26 204 0 c193 0 206 -1 216 -19z m-9862 -164
c12 -11 22 -30 22 -42 0 -12 7 -36 16 -53 19 -38 10 -77 -14 -67 -10 4 -53 11
-97 16 -44 5 -86 11 -93 14 -21 8 -33 54 -21 78 l12 21 17 -22 c15 -18 20 -19
29 -8 19 23 3 66 -24 66 -24 0 -39 12 -28 23 3 4 40 4 82 0 57 -4 82 -11 99
-26z m-818 -7 c11 -7 -3 -9 -45 -9 -48 1 -54 3 -30 9 43 11 58 11 75 0z m565
-40 c-3 -5 -13 -10 -21 -10 -8 0 -12 5 -9 10 3 6 13 10 21 10 8 0 12 -4 9 -10z
m10030 -27 c39 -3 76 -10 83 -15 9 -8 12 -67 12 -233 0 -325 0 -325 -87 -340
l-43 -7 0 132 c0 72 -5 140 -10 151 -7 13 -21 19 -44 19 -31 0 -34 3 -40 38
-10 63 -7 220 6 247 9 20 17 25 32 20 12 -3 53 -9 91 -12z m-8795 -88 c52 -8
99 -15 104 -15 9 0 7 -16 -17 -118 -8 -35 -19 -68 -24 -73 -6 -6 -26 -6 -54 0
-24 6 -67 11 -94 11 -62 0 -75 12 -75 65 0 22 -5 59 -10 83 -6 24 -8 47 -5 53
9 13 65 11 175 -6z m10856 -179 c3 -8 19 -19 36 -25 31 -11 32 -17 13 -64 -6
-14 -1 -18 25 -23 l32 -7 -28 -22 c-28 -22 -29 -22 -54 -4 -18 13 -47 19 -110
21 l-85 3 -3 32 c-3 26 3 36 32 60 50 40 132 56 142 29z m-3338 -68 c7 -7 12
-35 13 -62 1 -59 13 -100 23 -76 3 8 7 44 8 80 2 50 6 65 18 65 222 -4 516
-20 522 -29 4 -6 0 -21 -8 -34 -10 -15 -12 -28 -6 -35 5 -7 12 -29 15 -49 4
-27 2 -38 -10 -42 -8 -3 -138 -6 -290 -6 -245 0 -274 -2 -271 -16 3 -14 37
-16 283 -17 l280 -2 0 -55 0 -55 -278 0 -277 0 -10 35 c-5 19 -10 40 -10 46 0
6 -9 23 -20 37 -12 15 -23 49 -27 79 -3 29 -12 66 -20 81 -19 39 -9 67 26 67
15 0 32 -5 39 -12z m-8600 -80 c8 -8 12 -61 12 -174 0 -184 -3 -192 -67 -177
l-37 8 3 170 c1 93 5 173 7 177 8 12 69 9 82 -4z m450 -231 l3 -148 -33 3 -32
3 3 140 c1 77 5 144 8 148 3 4 15 7 26 5 21 -3 22 -8 25 -151z m487 138 c22
-8 66 -14 97 -15 31 0 59 -4 62 -8 5 -9 -15 -129 -39 -232 l-12 -55 -99 0
c-54 0 -107 3 -116 7 -16 7 -18 24 -18 156 0 82 3 152 7 155 11 12 76 7 118
-8z m-160 -150 l0 -150 -37 -3 c-27 -2 -39 1 -45 15 -5 10 -7 80 -5 156 l4
138 41 -3 42 -3 0 -150z m7565 125 c0 -5 -12 -10 -26 -10 -14 0 -23 4 -19 10
3 6 15 10 26 10 10 0 19 -4 19 -10z m2096 -32 c-4 -18 -10 -42 -13 -53 -3 -11
-5 -28 -4 -37 2 -28 1 -47 -5 -146 -8 -118 -1 -156 30 -170 35 -16 42 -47 17
-78 -24 -31 -27 -80 -7 -103 7 -9 16 -32 20 -52 6 -35 5 -37 -25 -43 -51 -10
-146 -7 -174 6 -20 9 -31 8 -50 -2 -19 -10 -30 -10 -54 -1 -19 9 -35 9 -48 3
-18 -9 -189 -21 -357 -25 -130 -3 -126 -8 -126 177 0 137 2 155 18 162 9 4 94
10 187 13 l170 6 3 170 c1 93 6 173 11 178 15 15 62 -5 71 -29 14 -35 48 -32
61 5 9 25 17 30 59 36 58 8 70 2 70 -31 0 -39 37 -32 54 11 14 32 18 35 57 35
l42 0 -7 -32z m-2022 3 c7 -11 -14 -20 -31 -13 -7 2 -13 8 -13 13 0 12 37 12
44 0z m81 -45 c15 -14 24 -30 20 -36 -5 -8 -14 -5 -29 8 -11 10 -29 22 -38 25
-10 4 -18 11 -18 17 0 19 39 10 65 -14z m-312 -16 c7 0 5 -5 -5 -10 -19 -12
-51 -3 -42 12 3 5 13 7 21 4 8 -3 20 -6 26 -6z m1775 -120 c2 -84 0 -111 -10
-114 -7 -3 -73 -7 -145 -9 l-133 -4 0 45 c0 42 4 50 51 94 28 26 56 48 63 48
6 0 20 7 30 15 11 8 37 15 57 15 21 0 41 5 44 10 3 6 14 10 23 10 15 0 17 -15
20 -110z m-1643 85 c19 -8 51 -22 70 -30 18 -8 42 -26 51 -40 17 -26 22 -45
49 -185 8 -41 24 -118 35 -170 12 -52 25 -115 30 -140 5 -25 16 -81 25 -125 9
-44 19 -92 22 -107 l5 -28 -119 0 c-79 0 -123 4 -131 12 -7 7 -12 44 -12 93 0
44 -5 99 -10 123 -6 23 -14 86 -20 140 -11 115 -27 236 -41 312 -18 98 -22
129 -16 145 8 19 17 19 62 0z m-101 -37 c11 -60 29 -192 37 -268 10 -105 34
-298 50 -406 16 -105 11 -116 -43 -112 l-43 3 -12 120 c-17 164 -42 369 -59
491 -8 56 -14 122 -14 148 l0 46 40 0 c33 0 40 -4 44 -22z m955 -22 c15 -18
11 -505 -4 -509 -5 -1 -11 12 -13 28 -5 47 -32 74 -82 83 l-45 8 -3 104 c-1
57 -8 110 -14 117 -14 18 -63 16 -78 -2 -9 -11 -11 -40 -7 -101 5 -94 2 -120
-19 -128 -36 -14 -39 -1 -38 202 0 108 1 200 2 205 1 4 67 7 146 7 110 0 146
-3 155 -14z m-619 -37 c0 -16 -4 -29 -10 -29 -5 0 -10 16 -10 36 0 21 4 33 10
29 6 -3 10 -19 10 -36z m269 -66 c1 -51 1 -135 1 -185 1 -51 3 -100 6 -109 2
-9 -3 -35 -11 -59 -8 -23 -15 -66 -15 -94 0 -99 -29 -96 -41 4 -4 30 -12 75
-19 100 -26 104 -34 137 -38 177 -4 38 -2 43 21 49 14 3 29 4 34 1 4 -2 17 -1
28 4 15 6 11 8 -20 8 -74 2 -82 8 -89 61 -4 27 -11 52 -16 55 -6 3 -10 23 -10
44 l0 37 72 2 c39 1 74 5 77 7 13 14 20 -18 20 -102z m3513 100 c-40 -2 -103
-2 -140 0 -37 2 -4 3 73 3 77 0 107 -2 67 -3z m-12444 -88 c3 -3 -82 -4 -189
-3 -121 1 -168 4 -124 7 82 7 305 4 313 -4z m8692 -44 c0 -31 5 -53 15 -61 9
-8 15 -30 15 -59 1 -25 7 -57 15 -71 8 -14 14 -39 15 -56 0 -17 7 -48 15 -67
8 -20 15 -51 15 -68 0 -31 16 -95 45 -186 14 -44 12 -53 -16 -53 -17 0 -29 27
-29 70 0 14 -6 45 -14 70 -23 73 -46 176 -46 206 0 16 -6 46 -14 69 -22 63
-48 213 -41 235 12 36 25 21 25 -29z m-7607 -18 c-29 -2 -78 -2 -110 0 -32 2
-8 3 52 3 61 0 87 -1 58 -3z m10723 -198 c2 -48 0 -94 -6 -103 -6 -12 -9 17
-10 92 0 128 10 135 16 11z m454 -10 c0 -50 -4 -85 -10 -85 -11 0 -14 152 -3
163 12 13 13 7 13 -78z m-450 -162 c0 -13 -4 -23 -10 -23 -5 0 -10 17 -10 38
0 27 3 33 10 22 5 -8 10 -25 10 -37z m450 -3 c0 -11 -4 -20 -10 -20 -5 0 -10
9 -10 20 0 11 5 20 10 20 6 0 10 -9 10 -20z m-2477 -57 c53 -4 98 -12 98 -16
4 -31 -11 -47 -44 -47 -19 0 -40 -7 -47 -15 -10 -12 -45 -15 -195 -15 -100 0
-203 3 -229 6 l-46 7 0 42 c0 23 3 45 7 49 8 8 311 0 456 -11z m342 -163 c19
-5 -14 -7 -85 -7 -102 0 -107 1 -45 7 94 9 96 9 130 0z m385 -28 c35 -8 34 -9
-22 -16 -64 -8 -263 3 -233 14 28 10 214 11 255 2z m488 -34 c-3 -8 -30 -14
-74 -16 -102 -5 -335 9 -328 19 3 5 95 9 205 9 156 0 200 -3 197 -12z m341
-24 c61 -13 29 -24 -66 -24 -123 0 -233 10 -233 21 0 10 252 12 299 3z m-2190
-40 c40 -8 80 -21 88 -29 8 -8 27 -15 42 -15 65 0 42 -40 -41 -71 -34 -12
-100 -42 -147 -65 -47 -23 -89 -40 -93 -37 -5 2 -8 26 -8 52 0 26 -5 73 -11
104 -6 31 -9 63 -5 72 7 18 37 16 175 -11z m139 -1 c-10 -2 -26 -2 -35 0 -10
3 -2 5 17 5 19 0 27 -2 18 -5z m112 -18 c0 -9 -9 -15 -25 -15 -29 0 -34 16 -7
23 30 8 32 7 32 -8z m-30 -96 c0 -6 -9 -13 -20 -16 -11 -3 -20 -9 -20 -14 0
-8 -31 -27 -77 -48 -13 -6 -23 -15 -23 -20 0 -5 -8 -11 -17 -15 -10 -3 -27
-11 -38 -17 -36 -21 -50 -29 -72 -38 -11 -6 -24 -15 -28 -20 -8 -13 -65 -15
-65 -2 0 15 50 45 219 132 52 27 99 53 105 59 13 13 36 13 36 -1z m40 -32 c0
-34 -135 -169 -272 -273 -100 -76 -118 -85 -118 -59 0 19 20 39 103 99 37 28
67 53 67 58 0 13 -28 9 -37 -5 -4 -8 -15 -17 -23 -20 -8 -4 -28 -16 -45 -27
-42 -27 -55 -33 -61 -27 -12 12 9 47 31 53 13 3 29 12 36 20 6 8 19 14 29 14
10 0 20 7 24 15 3 8 14 15 24 15 11 0 25 7 32 15 7 9 21 13 31 10 13 -4 19 -1
19 9 0 9 8 16 18 16 9 0 34 16 55 35 21 19 42 35 48 35 5 0 9 7 9 15 0 8 7 15
15 15 8 0 15 -6 15 -13z m-3201 -486 c26 -17 4 -36 -62 -54 -68 -18 -137 -23
-137 -9 0 9 72 47 115 61 39 12 66 13 84 2z m-5119 -446 c0 -11 -11 -15 -40
-15 -38 0 -49 8 -33 23 3 4 21 7 40 7 23 0 33 -5 33 -15z m8 -163 c3 -107 1
-114 -18 -119 -24 -6 -26 -22 -3 -38 14 -10 17 -32 17 -136 l1 -124 -27 -3
c-33 -4 -77 23 -89 57 -6 13 -10 116 -10 228 0 247 4 262 79 253 l47 -5 3
-113z m4994 -23 c46 -12 56 -30 67 -117 9 -68 -2 -398 -14 -438 -10 -33 -53
-51 -153 -64 -68 -10 -96 -10 -104 -2 -11 11 -25 599 -15 625 5 15 163 12 219
-4z m2733 -181 c15 -36 18 -76 18 -245 0 -219 -16 -325 -56 -370 -22 -24 -37
-22 -37 6 0 10 -7 32 -16 50 -13 25 -15 53 -10 139 3 59 5 136 5 172 0 83 17
169 37 191 10 11 13 26 9 38 -6 21 9 61 24 61 5 0 17 -19 26 -42z m-1487
-1017 c17 -35 32 -76 32 -90 0 -14 7 -51 15 -81 20 -74 19 -300 -1 -443 -27
-195 -106 -400 -161 -421 -19 -8 -58 16 -73 44 -13 25 -49 157 -50 182 0 25
28 48 61 48 36 0 37 -13 4 -48 -15 -16 -21 -30 -15 -36 11 -11 40 10 40 30 0
8 4 22 9 32 51 99 74 199 78 351 3 102 1 144 -11 179 -9 25 -16 57 -16 71 -1
38 -36 111 -55 111 -30 0 -10 68 33 113 43 45 71 35 110 -42z m-137 -146 c23
-61 24 -114 3 -129 -14 -10 -13 -15 6 -38 14 -19 24 -53 31 -113 11 -91 5
-159 -11 -120 -5 11 -9 32 -9 48 -1 44 -18 31 -26 -19 -3 -26 -11 -52 -15 -58
-5 -6 -22 -27 -39 -46 l-30 -35 -11 30 c-18 45 -6 222 17 247 14 16 15 23 5
38 -16 26 -15 59 3 90 8 14 14 41 15 61 0 45 19 101 32 97 6 -2 19 -26 29 -53z
m-6473 -182 c-10 -2 -26 -2 -35 0 -10 3 -2 5 17 5 19 0 27 -2 18 -5z m-100
-30 c-10 -2 -28 -2 -40 0 -13 2 -5 4 17 4 22 1 32 -1 23 -4z m-103 -23 c4 -6
-10 -10 -37 -9 -40 1 -41 2 -13 9 43 11 43 11 50 0z m-122 -37 c-13 -2 -33 -2
-45 0 -13 2 -3 4 22 4 25 0 35 -2 23 -4z m-93 -23 c0 -5 -9 -10 -19 -10 -11 0
-26 -3 -35 -6 -9 -3 -16 -1 -16 4 0 9 20 17 58 21 6 0 12 -3 12 -9z m6910
-163 c0 -23 -28 -85 -49 -111 -29 -35 -81 -19 -81 25 0 12 9 21 28 25 34 9 72
43 72 67 0 9 7 17 15 17 9 0 15 -9 15 -23z"/>
<path d="M7515 6870 c3 -5 13 -10 21 -10 8 0 14 5 14 10 0 6 -9 10 -21 10 -11
0 -17 -4 -14 -10z"/>
<path d="M7570 6850 c0 -5 10 -10 23 -10 18 0 19 2 7 10 -19 13 -30 13 -30 0z"/>
<path d="M5135 6369 c-55 -5 -185 -13 -290 -18 -191 -10 -363 -22 -575 -42
-63 -6 -169 -15 -235 -19 -66 -5 -163 -13 -215 -19 -52 -6 -165 -17 -250 -26
-85 -9 -207 -22 -270 -30 -63 -8 -180 -21 -260 -30 -161 -17 -315 -39 -435
-61 -44 -8 -91 -14 -104 -14 -38 0 -192 -40 -232 -60 -57 -30 -83 -70 -116
-176 -56 -181 -109 -424 -168 -759 -8 -47 -21 -122 -29 -168 -37 -207 -50
-309 -50 -403 -1 -94 1 -103 27 -143 51 -77 100 -88 480 -111 98 -5 291 -10
430 -10 239 0 254 -1 287 -21 19 -12 37 -25 40 -28 14 -20 81 -62 118 -75 23
-8 54 -28 69 -44 36 -38 100 -75 107 -63 3 5 -16 29 -44 54 -77 70 -67 93 46
99 59 3 79 9 114 33 l43 30 526 6 526 7 50 -23 c28 -12 75 -42 105 -66 30 -25
63 -48 72 -51 26 -10 68 28 68 62 0 29 0 29 51 23 47 -6 52 -4 74 23 l23 29
394 6 c726 12 859 31 952 137 61 70 68 110 67 377 -1 276 -25 777 -46 975 -8
74 -15 155 -15 180 -1 25 -9 93 -19 152 -30 175 -76 229 -218 262 -62 14 -139
16 -535 15 -255 -1 -508 -6 -563 -10z m976 -141 c122 -10 140 -14 168 -37 28
-23 33 -36 46 -111 27 -168 56 -491 44 -504 -9 -10 -22 -11 -403 -23 -298 -10
-299 -10 -317 -34 -12 -15 -19 -39 -18 -64 2 -82 7 -77 -68 -70 -38 4 -75 13
-84 21 -18 16 -132 37 -214 38 l-60 1 -10 -157 c-11 -173 -17 -189 -64 -172
-25 10 -131 3 -167 -10 -6 -2 -16 -1 -23 3 -11 7 -10 38 19 308 6 50 10 114
10 141 0 47 -2 51 -34 66 -19 9 -54 16 -78 16 -24 0 -59 5 -78 10 -19 6 -73
13 -120 16 -47 3 -117 12 -157 20 -89 17 -147 18 -161 2 -17 -22 -42 -120 -42
-167 0 -25 -4 -62 -10 -81 -5 -19 -14 -75 -19 -125 -19 -170 -33 -236 -50
-233 -23 5 -26 98 -7 218 9 53 16 118 16 142 0 25 7 62 15 81 21 50 20 170 -1
188 -8 7 -58 16 -112 20 -53 5 -115 12 -137 17 -22 6 -84 13 -138 17 -111 7
-127 1 -127 -49 0 -17 -7 -53 -15 -80 -8 -27 -15 -66 -15 -87 0 -21 -7 -64
-15 -96 -8 -31 -15 -79 -15 -105 0 -26 -7 -73 -15 -105 -8 -31 -15 -72 -15
-91 0 -29 -3 -33 -22 -30 -21 3 -23 8 -20 53 2 28 10 77 18 110 7 33 14 77 14
99 0 21 7 77 16 125 8 47 20 111 25 141 5 30 12 65 15 77 4 14 -1 28 -15 42
-17 17 -33 21 -93 21 -40 0 -98 7 -128 15 -68 18 -150 19 -174 2 -11 -8 -19
-32 -23 -72 -9 -96 -22 -99 -20 -5 l2 85 -50 7 c-27 4 -97 12 -155 17 -58 6
-141 16 -185 22 -92 11 -291 28 -415 35 -47 3 -96 7 -110 10 l-25 6 24 19 c14
12 39 19 65 19 22 0 57 5 76 11 55 16 206 40 310 49 52 4 127 12 165 19 39 6
102 16 140 22 39 6 124 15 190 19 118 9 176 15 410 45 66 8 154 15 195 15 41
0 113 7 160 15 47 8 123 15 170 15 47 1 117 5 155 11 39 5 149 14 245 18 96 5
243 14 325 21 141 11 583 25 905 29 80 1 206 -4 281 -11z m-3551 -399 c47 -6
132 -14 190 -19 58 -5 125 -14 150 -19 25 -5 92 -12 149 -15 57 -3 109 -10
115 -16 7 -7 6 -33 -2 -82 -6 -40 -18 -112 -25 -159 -8 -48 -18 -92 -22 -99
-7 -12 -14 -52 -34 -217 -4 -40 -13 -79 -20 -86 -7 -9 -42 -16 -91 -20 -47 -4
-93 -13 -109 -23 -28 -17 -76 -89 -105 -158 l-16 -39 -48 7 c-26 4 -110 9
-187 12 -215 10 -294 -13 -295 -83 0 -30 9 -29 39 3 l25 26 206 -4 c151 -2
211 -7 223 -16 14 -12 13 -19 -4 -80 -10 -37 -19 -79 -19 -94 l0 -28 -102 0
c-57 0 -159 -7 -228 -15 -69 -8 -146 -15 -172 -15 -29 0 -50 -5 -55 -14 -12
-20 -83 -50 -94 -39 -10 10 6 255 20 313 5 19 12 62 16 95 7 72 30 196 70 385
8 36 21 97 29 135 38 181 50 235 68 294 10 36 23 70 29 77 12 14 140 11 299
-7z m1027 -101 c25 -12 28 -19 25 -53 -4 -70 -34 -190 -48 -198 -10 -6 -11
-13 -4 -27 13 -24 2 -164 -16 -209 -8 -18 -14 -50 -14 -70 0 -20 -4 -41 -8
-46 -4 -6 -69 -11 -149 -13 -111 -2 -143 0 -144 10 -3 32 4 117 13 158 9 43
29 165 47 295 5 33 14 86 22 119 l13 59 117 -6 c69 -3 129 -11 146 -19z m308
-23 c38 -8 90 -15 114 -15 63 0 168 -20 180 -34 7 -8 5 -48 -5 -121 -8 -61
-22 -162 -30 -225 -30 -241 -25 -225 -69 -214 -16 4 -25 13 -25 25 0 10 -7 19
-15 19 -9 0 -15 -9 -15 -22 0 -21 -1 -21 -157 -15 -86 4 -160 10 -164 14 -9
10 10 184 42 383 6 41 15 104 19 139 7 59 19 81 45 81 6 0 41 -7 80 -15z m715
-90 c52 -8 133 -19 180 -25 126 -16 120 -13 120 -78 -1 -79 -18 -202 -30 -217
-6 -7 -8 -20 -4 -29 10 -26 -5 -106 -20 -106 -18 0 -29 75 -16 100 15 27 13
30 -19 30 -40 0 -53 -19 -41 -61 20 -68 12 -73 -135 -86 l-90 -7 163 -10 c89
-5 162 -12 162 -17 0 -5 -19 -18 -42 -30 -24 -12 -49 -29 -56 -38 -18 -23 -47
-87 -68 -151 -23 -71 -41 -86 -109 -95 -31 -3 -72 -13 -90 -21 -48 -20 -62
-11 -69 49 -8 56 -52 134 -112 197 l-34 36 11 113 c6 62 15 124 20 138 5 13 9
50 9 81 0 31 7 84 15 117 8 33 14 74 15 91 0 17 3 34 8 38 8 9 88 2 232 -19z
m1767 -117 c6 -7 14 -61 17 -120 7 -100 6 -107 -13 -117 -27 -15 -26 -15 -61
19 -30 29 -33 30 -135 30 -57 0 -106 -4 -109 -8 -7 -12 5 -82 14 -82 4 0 12
11 18 25 10 21 18 25 56 25 49 0 69 -14 33 -24 -29 -7 -59 -59 -69 -121 -8
-51 -26 -142 -54 -270 -8 -38 -21 -99 -28 -135 -24 -118 -37 -157 -62 -183
-14 -15 -29 -27 -34 -27 -6 0 -10 45 -10 107 0 125 -18 210 -66 303 -41 81
-87 133 -139 155 -24 10 -82 20 -147 23 -59 4 -112 12 -118 18 -9 9 -8 35 2
100 l14 89 54 3 c30 2 69 1 86 -3 31 -5 32 -7 36 -71 3 -45 9 -70 20 -78 10
-7 75 -11 194 -10 182 1 228 7 221 27 -3 9 -51 11 -170 10 l-167 -2 0 42 c0
23 7 53 16 66 16 22 16 24 0 33 -18 10 -23 83 -6 93 6 4 9 19 8 33 -3 27 -2
27 77 34 44 4 163 12 265 16 102 5 199 10 216 10 17 1 36 -4 41 -10z m10 -740
c-2 -18 -4 -4 -4 32 0 36 2 50 4 33 2 -18 2 -48 0 -65z m-251 -76 c-11 -10
-13 3 -7 48 l6 45 3 -44 c2 -23 1 -46 -2 -49z m254 -116 c-5 -5 -17 -6 -27 -2
-17 7 -17 8 0 17 9 6 17 20 18 32 1 18 2 16 10 -8 5 -17 5 -33 -1 -39z m-225
3 c-73 -7 -80 -6 -72 8 3 4 36 6 74 4 l68 -5 -70 -7z m-2070 -119 c-29 -12
-238 -12 -230 0 4 6 57 10 128 9 78 0 115 -4 102 -9z"/>
<path d="M3807 5283 c-4 -3 -7 -12 -7 -20 0 -10 17 -13 68 -12 l67 1 -50 9
c-27 4 -51 13 -53 19 -4 11 -15 13 -25 3z"/>
<path d="M3965 5250 c17 -4 36 -9 44 -11 7 -2 16 2 18 9 3 8 -9 12 -44 11 -42
-1 -45 -2 -18 -9z"/>
<path d="M4568 5263 c-33 -8 -34 -73 -1 -73 10 0 12 6 8 20 -5 15 0 22 20 30
43 16 20 36 -27 23z"/>
<path d="M9164 5923 c14 -14 30 -23 34 -19 3 4 -4 16 -18 26 -37 29 -47 24
-16 -7z"/>
<path d="M3767 4195 c-58 -22 -96 -53 -132 -110 -33 -50 -36 -53 -87 -57 -30
-3 -54 -11 -57 -19 -7 -21 -64 -69 -82 -69 -9 0 -32 19 -50 42 -103 129 -163
178 -216 178 -38 0 -113 -31 -133 -55 -7 -9 -26 -25 -42 -37 l-29 -20 -37 29
c-20 16 -47 35 -60 42 -33 18 -118 16 -145 -3 -12 -9 -32 -23 -45 -33 -22 -15
-25 -15 -52 0 -33 20 -76 22 -86 5 -4 -6 4 -21 19 -34 15 -13 27 -31 27 -41 0
-10 -41 -55 -91 -101 l-90 -83 -37 23 c-20 12 -45 27 -54 32 -24 14 -23 53 1
66 30 15 82 12 103 -7 17 -16 20 -16 36 1 16 16 16 18 -8 37 -49 38 -105 33
-146 -12 -17 -19 -64 -27 -64 -10 0 13 -58 41 -86 41 -57 0 -110 -59 -116
-129 -3 -30 0 -35 25 -42 64 -17 71 -43 27 -99 -35 -44 -36 -50 -11 -50 10 0
31 16 45 35 30 38 47 43 67 19 7 -8 30 -24 51 -35 38 -19 38 -19 84 1 43 20
47 20 77 5 90 -47 186 -56 288 -30 73 19 135 55 299 173 21 15 17 18 114 -87
26 -29 66 -66 89 -82 37 -27 47 -29 124 -29 88 0 130 14 200 66 17 13 34 24
36 24 2 0 30 -25 61 -54 67 -65 120 -93 197 -104 60 -9 158 6 200 30 44 25
110 77 130 102 28 36 53 33 106 -14 81 -71 193 -88 297 -45 l60 24 33 -21 c26
-16 43 -19 74 -14 55 9 157 64 165 90 8 26 43 66 58 66 6 0 31 -16 56 -36 69
-55 117 -80 218 -113 81 -27 106 -31 207 -31 95 0 128 4 195 26 l82 25 45 -21
c74 -35 97 -35 172 -5 l69 27 38 -26 c46 -31 79 -33 119 -6 17 11 47 20 70 20
48 0 125 33 125 54 0 8 -16 24 -36 36 -37 24 -55 21 -34 -5 16 -19 2 -38 -41
-55 -27 -12 -33 -10 -67 17 -38 31 -49 58 -33 83 9 12 17 12 61 -4 56 -20 77
-14 44 12 -14 11 -24 33 -27 60 -11 88 -103 160 -192 150 -23 -3 -70 -19 -104
-37 -73 -37 -83 -38 -128 -10 -35 22 -126 31 -152 15 -24 -15 -11 -36 23 -36
61 0 135 -34 136 -62 0 -10 -76 -48 -96 -48 -17 0 -122 103 -171 167 -28 37
-100 90 -156 117 -47 22 -75 16 -121 -24 -18 -17 -38 -30 -42 -30 -5 0 -29 16
-54 36 -35 27 -51 34 -72 30 -41 -8 -107 -53 -120 -82 -18 -39 -54 -42 -91 -7
-105 98 -175 126 -249 103 -44 -14 -111 -60 -183 -124 -22 -20 -47 -36 -55
-36 -8 0 -28 16 -43 35 -33 42 -47 43 -83 10 -31 -29 -39 -30 -78 -10 -16 8
-34 15 -40 14 -32 -4 -44 4 -60 41 -22 50 -85 104 -144 124 -54 19 -75 19
-125 1z m138 -71 c53 -25 128 -110 123 -139 -4 -20 -1 -23 22 -23 33 1 52 -10
48 -27 -5 -22 -171 -154 -215 -171 -36 -14 -47 -15 -74 -4 -68 29 -119 92
-119 147 0 16 -3 48 -6 73 -5 40 -2 49 27 84 62 74 125 93 194 60z m-735 -75
c54 -28 160 -134 160 -159 0 -11 -11 -27 -25 -36 -24 -16 -25 -15 -109 70 -61
62 -92 86 -110 86 -40 0 -40 -18 1 -63 21 -23 58 -70 83 -105 50 -69 75 -82
113 -57 14 9 48 18 76 20 28 2 67 10 86 16 25 9 38 10 46 2 17 -17 -64 -78
-130 -97 -72 -20 -85 -20 -141 1 -69 26 -104 57 -161 144 -58 87 -79 97 -104
49 -17 -33 -160 -144 -237 -184 -106 -55 -205 -55 -320 -1 -52 24 -56 25 -91
10 -51 -21 -75 -19 -119 11 -47 33 -50 63 -7 98 17 14 34 26 38 26 4 0 33 -20
63 -43 64 -49 87 -60 174 -76 84 -15 115 -14 176 9 60 23 181 131 176 158 -6
28 -25 23 -73 -20 -74 -66 -114 -87 -166 -88 -25 0 -53 6 -63 13 -17 13 -13
19 60 80 99 83 171 121 213 112 16 -3 50 -22 75 -41 42 -32 106 -47 106 -25 0
5 15 24 33 43 68 73 107 83 177 47z m1504 -12 c21 -16 16 -21 -59 -62 -27 -15
-63 -40 -80 -55 -54 -51 -110 -73 -165 -67 -87 10 -169 80 -156 132 11 45 35
34 106 -53 19 -23 41 -42 50 -42 8 1 43 27 77 58 98 91 180 123 227 89z m666
-8 c34 -20 220 -207 220 -221 1 -34 -160 -44 -252 -15 -82 26 -122 56 -126 94
-4 41 16 47 124 38 54 -4 84 -3 84 3 0 17 -63 51 -108 58 -35 5 -42 10 -42 29
0 12 3 25 7 28 13 14 59 7 93 -14z m-255 -49 c0 -22 -5 -26 -39 -30 -22 -3
-41 -10 -43 -16 -5 -16 130 -150 174 -172 177 -91 383 -61 599 86 54 37 79 40
93 13 13 -24 0 -35 -88 -78 -56 -27 -62 -31 -37 -32 16 -1 45 4 66 10 75 23
122 -47 61 -90 -16 -12 -40 -21 -53 -21 -33 1 -107 36 -115 55 -9 25 -55 40
-68 22 -16 -23 -53 -38 -137 -58 -96 -23 -118 -23 -227 -3 -107 20 -228 76
-309 144 -46 38 -67 50 -82 45 -24 -8 -90 -91 -90 -114 0 -29 -63 -63 -112
-59 -60 4 -64 34 -11 80 20 18 51 47 68 64 44 44 132 108 193 139 29 15 55 31
58 37 3 5 27 8 52 6 43 -3 47 -5 47 -28z m-1492 -37 c13 -21 27 -47 31 -59 10
-33 110 -131 151 -148 48 -21 108 -20 147 0 28 15 118 84 173 133 24 22 65 36
65 23 0 -13 -43 -65 -105 -128 -72 -71 -133 -99 -220 -99 -114 0 -204 59 -260
169 -21 43 -34 56 -56 61 -35 8 -37 30 -7 62 31 33 54 29 81 -14z m1155 13 c5
-27 -96 -126 -195 -192 -74 -49 -87 -54 -136 -54 -69 0 -135 29 -177 76 -61
70 -68 124 -8 64 66 -66 166 -87 262 -54 36 12 45 20 41 33 -5 16 4 24 133
124 40 31 75 32 80 3z m1302 4 c45 -23 90 -77 90 -108 0 -16 -10 -24 -42 -33
-78 -23 -85 -39 -37 -93 22 -25 29 -41 24 -56 -9 -29 -37 -25 -83 13 -22 17
-54 40 -71 49 -57 31 -34 97 30 83 46 -10 34 13 -29 55 -29 19 -52 41 -52 50
0 18 73 58 108 59 12 1 40 -8 62 -19z m-3889 -10 c29 -16 24 -54 -12 -84 -36
-30 -44 -31 -93 -11 -43 18 -46 39 -9 77 29 30 77 37 114 18z"/>
<path d="M3761 4032 c-24 -21 -42 -44 -40 -50 3 -9 18 -1 44 21 22 18 48 36
58 40 9 3 17 11 17 17 0 21 -37 8 -79 -28z"/>
<path d="M3951 3967 c-8 -20 -20 -26 -80 -35 -38 -7 -93 -12 -120 -12 -58 0
-65 -12 -21 -35 54 -28 211 -10 258 30 26 23 28 35 7 35 -8 0 -15 6 -15 14 0
26 -20 28 -29 3z"/>
<path d="M5385 3889 c-4 -11 -18 -25 -32 -30 -20 -7 -23 -13 -15 -21 8 -8 22
-8 51 1 50 14 58 27 35 52 -22 24 -31 24 -39 -2z"/>
<path d="M2766 3548 c-39 -30 -39 -124 -1 -458 9 -74 22 -156 30 -181 8 -26
15 -62 15 -81 0 -43 37 -116 71 -141 20 -14 53 -21 138 -27 61 -5 115 -11 121
-15 5 -3 108 -10 227 -16 120 -5 250 -13 288 -19 39 -5 127 -9 196 -9 69 -1
150 -5 180 -11 30 -5 171 -14 314 -20 143 -5 334 -15 425 -21 150 -10 170 -9
220 7 30 10 63 25 74 33 43 37 64 120 97 381 13 108 24 439 15 474 -3 13 -18
28 -33 35 -18 7 -208 14 -538 20 -280 6 -645 15 -810 21 -686 24 -874 31 -940
36 -52 4 -75 2 -89 -8z m359 -288 c154 -5 330 -11 390 -15 251 -14 953 -38
1275 -44 l345 -6 0 -70 c-1 -38 -6 -117 -13 -175 -39 -350 -58 -374 -292 -375
-69 0 -177 6 -240 12 -63 7 -186 13 -272 13 -86 0 -179 4 -205 10 -26 5 -149
14 -273 20 -124 6 -259 15 -300 20 -41 5 -127 9 -190 10 -63 0 -133 5 -155 10
-22 5 -92 13 -155 16 -90 6 -120 11 -139 26 -28 21 -61 89 -61 124 0 14 -7 41
-15 61 -8 19 -15 59 -15 87 0 28 -7 96 -15 151 -17 123 -13 149 24 140 14 -3
152 -10 306 -15z"/>
<path d="M3252 3220 c-24 -10 -46 -55 -35 -73 3 -5 10 -53 14 -106 13 -156 31
-244 52 -268 18 -20 30 -23 96 -23 42 0 135 -7 206 -15 72 -8 173 -15 225 -15
52 -1 129 -5 170 -10 91 -12 557 -30 576 -23 20 7 54 90 54 129 0 39 28 223
36 236 3 5 3 27 -1 49 -10 59 -30 65 -240 73 -99 4 -223 11 -275 16 -52 5
-162 10 -245 10 -138 1 -370 11 -540 25 -38 3 -80 1 -93 -5z m713 -71 c39 -4
135 -9 215 -9 157 0 357 -16 397 -31 24 -9 24 -11 18 -77 -3 -37 -10 -110 -14
-162 -5 -65 -13 -104 -25 -122 l-18 -28 -167 0 c-91 0 -231 7 -311 15 -80 8
-199 15 -265 15 -66 1 -140 5 -165 10 -25 5 -104 13 -177 16 -72 4 -137 10
-144 15 -22 13 -56 335 -40 378 2 7 625 -11 696 -20z"/>
<path d="M3552 3068 c-15 -15 -16 -132 -2 -159 18 -32 40 -23 40 15 0 19 5 38
10 41 6 4 10 -6 10 -22 0 -38 17 -55 42 -42 14 7 23 7 33 -1 10 -8 19 -8 34 0
17 9 21 20 21 66 0 40 3 54 13 51 8 -2 12 -26 12 -68 0 -53 3 -64 18 -67 9 -2
17 2 17 10 0 7 5 20 10 28 8 12 14 9 38 -19 21 -26 33 -32 49 -27 19 6 22 15
25 87 2 45 -1 83 -6 86 -14 9 -86 12 -91 3 -3 -4 -22 -2 -42 6 -21 7 -45 13
-54 14 -22 0 -49 -32 -49 -58 0 -32 -19 -36 -26 -5 -11 48 -32 73 -62 73 -16
0 -33 -5 -40 -12z m338 -83 c0 -29 -16 -41 -24 -19 -8 21 3 56 15 49 5 -4 9
-17 9 -30z"/>
<path d="M3954 3037 c-3 -8 -4 -47 -2 -88 2 -58 6 -74 18 -74 11 0 16 15 18
62 3 62 19 92 43 78 12 -8 8 -44 -12 -93 -12 -28 -12 -34 1 -43 8 -5 26 -8 40
-7 14 1 30 0 35 -3 6 -3 35 -5 65 -5 l55 1 -3 60 c-2 41 1 66 12 80 14 19 15
19 21 -8 4 -15 5 -53 3 -83 -4 -51 -3 -57 19 -67 18 -8 27 -7 43 8 16 15 20
31 20 86 0 94 -3 95 -208 104 -134 5 -163 4 -168 -8z m137 -75 c2 -49 -4 -72
-17 -60 -3 4 -2 32 1 63 4 31 9 54 11 53 1 -2 4 -27 5 -56z m69 -7 c0 -54 -12
-79 -24 -49 -13 34 -2 119 15 108 5 -3 9 -29 9 -59z"/>
<path d="M2177 3268 c-95 -51 -147 -158 -147 -302 0 -167 69 -293 190 -347 85
-38 181 -12 247 66 57 68 73 121 74 234 1 171 -62 289 -188 354 -44 23 -128
21 -176 -5z m176 -44 c66 -41 91 -79 130 -200 30 -90 15 -210 -35 -286 -60
-91 -192 -106 -274 -30 -46 42 -74 83 -74 109 0 10 -7 31 -15 47 -23 43 -23
163 -1 212 46 101 61 119 141 163 34 18 83 12 128 -15z"/>
<path d="M2110 3060 c-14 -20 -21 -47 -22 -92 -4 -81 16 -108 79 -108 23 0 45
5 48 10 4 7 11 7 18 2 7 -5 40 -15 74 -22 56 -11 63 -11 87 6 23 17 25 25 26
95 0 67 -3 79 -25 103 -14 15 -36 27 -52 27 -15 1 -70 3 -120 4 -92 3 -93 3
-113 -25z m123 -29 c2 -10 1 -25 -4 -32 -6 -10 -9 -4 -9 19 0 36 5 42 13 13z"/>
<path d="M5680 3174 c-84 -30 -146 -79 -195 -153 -39 -58 -56 -117 -62 -218
-5 -88 5 -134 53 -241 55 -120 180 -206 304 -207 103 0 173 28 246 100 86 86
114 160 114 308 0 99 -3 115 -31 183 -36 87 -103 160 -184 202 -41 21 -67 26
-140 29 -49 1 -97 0 -105 -3z m213 -75 c109 -53 156 -114 191 -245 20 -77 20
-103 -3 -189 -32 -121 -71 -178 -146 -218 -33 -17 -58 -21 -140 -21 -120 -1
-159 14 -225 85 -74 79 -113 230 -90 347 7 37 19 76 26 87 8 11 14 26 14 35 0
24 64 87 121 118 78 43 166 44 252 1z"/>
<path d="M5584 2945 c-14 -21 -14 -30 -4 -56 8 -19 11 -52 7 -95 -10 -99 21
-148 57 -91 17 26 28 226 14 250 -14 26 -55 21 -74 -8z"/>
<path d="M5692 2958 c-15 -15 -16 -231 -2 -259 9 -15 22 -19 68 -19 32 0 63 5
69 11 8 8 17 8 31 0 11 -6 38 -11 60 -11 58 0 72 26 75 144 2 107 -9 131 -70
142 -55 10 -75 -17 -89 -124 l-12 -87 -1 88 c-1 114 -8 127 -69 127 -27 0 -53
-5 -60 -12z m225 -165 c-2 -21 -4 -6 -4 32 0 39 2 55 4 38 2 -18 2 -50 0 -70z"/>
<path d="M6933 6344 c-3 -9 -1 -60 6 -113 31 -251 41 -338 56 -486 8 -88 22
-218 30 -290 8 -71 21 -220 30 -330 9 -110 20 -245 25 -300 5 -55 12 -151 16
-213 6 -101 9 -115 28 -126 23 -14 247 -9 796 19 162 8 427 20 589 27 271 11
294 10 303 -5 13 -24 28 -21 28 7 0 13 7 29 15 36 19 16 19 82 0 275 -8 83
-21 231 -30 330 -30 344 -46 490 -58 530 -10 35 -20 44 -72 69 -55 27 -389
146 -565 201 -80 25 -124 40 -180 61 -19 7 -80 27 -135 45 -55 18 -131 43
-170 56 -38 13 -99 33 -135 45 -36 11 -96 32 -135 45 -250 85 -400 133 -416
133 -11 0 -22 -7 -26 -16z m195 -193 c9 -5 51 -20 92 -32 41 -12 94 -28 118
-36 23 -7 48 -13 54 -13 6 0 19 -6 27 -13 9 -8 52 -22 96 -32 44 -9 100 -23
125 -30 141 -41 171 -50 237 -71 40 -13 89 -26 110 -30 21 -4 43 -10 48 -14 6
-4 22 -10 38 -14 60 -14 20 -24 -115 -29 -79 -2 -195 -10 -258 -16 -63 -6
-150 -14 -193 -17 -43 -3 -76 -8 -73 -11 7 -7 339 -4 386 3 68 10 305 21 313
14 4 -3 12 -51 17 -106 28 -303 41 -436 49 -499 5 -38 7 -73 5 -77 -3 -4 -24
-8 -47 -8 -23 0 -62 -6 -87 -12 -25 -6 -80 -10 -122 -9 -103 3 -114 -4 -123
-79 -11 -97 -31 -86 -37 20 -3 40 -5 45 -26 43 -15 -2 -26 4 -32 20 -14 32
-40 149 -35 158 3 4 77 10 165 14 131 6 160 10 160 22 0 13 -24 14 -170 8 -94
-3 -176 -8 -184 -11 -7 -3 -37 14 -67 38 -85 67 -82 61 -77 144 3 63 1 74 -12
72 -12 -3 -15 -19 -15 -78 l0 -75 -60 3 c-33 2 -64 8 -69 13 -31 29 -61 173
-81 387 -8 84 -17 156 -19 161 -11 18 21 29 91 33 40 2 78 9 85 16 9 9 -11 12
-95 12 -134 0 -136 -2 -112 -131 9 -49 13 -94 10 -99 -3 -6 -34 -10 -68 -10
l-62 0 -18 163 c-10 89 -21 174 -24 190 -4 23 -2 27 16 27 12 0 29 -4 39 -9z
m1257 -386 c22 -7 74 -23 115 -35 98 -28 159 -51 166 -61 2 -4 -15 -10 -38
-13 -86 -11 -91 -15 -21 -12 85 2 81 6 95 -109 20 -177 26 -280 17 -297 -7
-13 -6 -20 5 -24 18 -7 33 -101 17 -117 -7 -7 -15 -6 -27 4 -12 10 -69 17
-198 24 l-181 10 -3 28 c-6 54 5 57 186 57 91 0 163 2 161 5 -3 2 -78 5 -167
5 -129 1 -165 5 -177 17 -18 17 -20 63 -3 63 6 0 3 9 -8 21 -12 14 -19 40 -22
85 l-4 64 48 2 c27 0 58 0 69 -1 33 -3 49 7 36 23 -8 9 -29 13 -67 11 -45 -3
-58 0 -74 18 -26 27 -35 56 -21 70 6 6 7 15 1 22 -11 14 -25 138 -17 159 5 12
12 13 39 4 18 -6 51 -16 73 -23z m-1141 -47 c2 -7 8 -29 14 -48 6 -19 14 -68
18 -107 l7 -73 -51 0 c-77 0 -89 15 -96 132 -5 73 -3 97 6 101 27 11 99 7 102
-5z m304 -406 c3 -11 -9 -13 -59 -8 -35 3 -76 5 -91 6 -16 0 -28 5 -28 10 0
17 172 8 178 -8z m71 -136 c14 -73 15 -193 1 -201 -5 -3 -10 -33 -10 -66 0
-38 -4 -58 -10 -54 -5 3 -10 23 -10 44 0 28 -9 51 -37 87 -46 61 -58 71 -105
85 -55 18 -70 38 -66 95 l3 49 92 5 c53 3 97 10 105 18 17 17 23 6 37 -62z
m296 -194 c0 -48 -4 -100 -8 -116 -8 -27 -9 -28 -25 -12 -14 13 -17 35 -16
104 1 92 16 144 37 123 7 -7 12 -46 12 -99z m93 73 c8 -7 -10 -25 -24 -25 -8
0 -14 -4 -14 -10 0 -5 -9 -10 -20 -10 -23 0 -23 0 -10 35 9 23 14 26 38 20 15
-4 29 -8 30 -10z m-250 -46 c-2 -19 -7 -33 -13 -32 -14 3 -18 29 -10 60 9 37
27 14 23 -28z m400 39 c18 -24 -4 -58 -38 -58 -16 0 -30 -4 -30 -10 0 -5 -5
-10 -11 -10 -17 0 -1 53 23 73 24 20 42 22 56 5z m-125 -55 c4 -3 0 -17 -9
-31 -11 -16 -14 -35 -10 -57 7 -35 -7 -85 -24 -85 -17 0 -12 115 8 149 17 32
24 36 35 24z m-258 -113 c0 -11 -9 -14 -32 -12 -19 2 -33 -1 -33 -7 0 -6 6
-11 14 -11 24 0 30 -21 8 -27 -30 -7 -35 -79 -8 -104 18 -17 21 -17 37 -3 19
17 35 4 25 -21 -3 -9 1 -15 9 -15 29 0 15 -20 -15 -21 -95 -4 -105 -3 -101 11
2 8 6 63 9 121 l4 106 42 -1 c29 -1 41 -5 41 -16z m431 -8 c5 1 11 -35 14 -82
3 -47 9 -90 13 -97 4 -6 3 -14 -2 -17 -17 -11 -25 18 -25 98 -1 54 -5 81 -13
83 -7 3 -13 12 -13 21 0 13 2 14 9 4 4 -8 12 -12 17 -10z m530 -179 c-7 -7
-98 -5 -105 3 -2 2 22 4 54 4 32 0 55 -3 51 -7z"/>
<path d="M7830 5654 c0 -28 -5 -55 -12 -62 -8 -8 -46 -12 -104 -12 -95 0 -155
-13 -138 -30 5 -5 63 -11 129 -12 l120 -3 3 -62 c2 -35 6 -63 11 -63 8 0 4
280 -4 288 -3 3 -5 -17 -5 -44z"/>
<path d="M7935 5473 c-35 -6 -55 -20 -55 -40 0 -12 9 -14 48 -8 26 3 53 13 61
20 15 14 7 36 -12 34 -7 -1 -25 -4 -42 -6z"/>
<path d="M8490 5522 c-5 -2 -10 -12 -10 -23 0 -17 8 -19 63 -19 107 0 194 38
95 41 -108 4 -138 4 -148 1z"/>
<path d="M8580 5430 c0 -19 3 -21 12 -12 9 9 9 15 0 24 -9 9 -12 7 -12 -12z"/>
<path d="M8577 5353 c-21 -21 7 -49 33 -33 11 7 11 11 1 24 -15 17 -24 20 -34
9z"/>
<path d="M8405 5340 c-3 -5 -16 -11 -28 -11 -17 -1 -15 -3 8 -9 52 -13 65 -11
65 10 0 21 -33 29 -45 10z"/>
<path d="M9530 4463 c0 -10 -3 -28 -6 -40 -5 -18 -2 -23 14 -23 27 0 35 14 27
50 -7 32 -35 42 -35 13z"/>
<path d="M8844 4366 c3 -60 6 -126 6 -147 0 -25 7 -45 20 -57 18 -16 19 -23 9
-52 -9 -24 -10 -86 -4 -224 10 -223 10 -219 0 -313 -6 -56 -4 -80 9 -112 22
-56 23 -394 1 -537 -8 -54 -15 -132 -15 -172 0 -40 -5 -82 -10 -93 -16 -30
-26 -157 -11 -143 7 6 15 38 18 70 3 32 10 68 16 79 14 26 24 215 36 635 8
272 7 337 -3 350 -10 11 -15 78 -20 248 -6 224 -5 232 13 232 10 0 21 -7 25
-15 9 -24 54 -18 72 10 9 14 32 32 50 40 42 18 48 50 7 42 -15 -3 -37 2 -50
10 -19 13 -28 13 -53 3 -17 -7 -30 -16 -30 -20 0 -11 -50 -19 -56 -8 -3 4 -7
65 -9 135 -3 79 -9 130 -16 137 -9 8 -10 -15 -5 -98z m141 -206 c0 -8 -10 -16
-22 -18 -18 -3 -23 2 -23 18 0 16 5 21 23 18 12 -2 22 -10 22 -18z"/>
<path d="M9300 4432 c0 -25 -4 -32 -19 -32 -12 0 -21 8 -23 20 -4 26 -22 27
-26 3 -7 -43 -13 -48 -25 -23 -15 30 -35 37 -43 13 -3 -10 -10 -26 -15 -35
-16 -31 -11 -39 24 -33 63 11 112 17 142 19 41 2 47 42 10 76 l-25 23 0 -31z"/>
<path d="M9387 4453 c-14 -13 -8 -83 7 -83 18 0 27 36 16 66 -10 26 -13 28
-23 17z"/>
<path d="M9450 4440 c-23 -23 -24 -29 -10 -50 9 -13 13 -11 30 10 34 43 18 78
-20 40z"/>
<path d="M8967 4424 c-4 -4 -7 -23 -7 -42 0 -25 5 -35 20 -39 11 -3 20 -14 20
-24 0 -22 23 -25 39 -5 17 21 10 101 -9 101 -8 0 -17 -11 -21 -25 -6 -25 -6
-25 -10 4 -4 29 -19 43 -32 30z"/>
<path d="M9084 4417 c-10 -28 0 -82 16 -82 11 0 15 12 15 44 0 44 -19 68 -31
38z"/>
<path d="M9440 4291 c-49 -7 -70 -17 -70 -32 0 -12 97 -12 104 0 3 5 14 7 24
4 10 -2 26 5 36 16 19 21 19 21 -15 20 -19 -1 -54 -5 -79 -8z"/>
<path d="M9290 4261 c0 -6 -21 -11 -47 -13 -27 -2 -47 -7 -45 -13 5 -20 142 1
150 23 2 8 -7 12 -27 12 -17 0 -31 -4 -31 -9z"/>
<path d="M9560 4255 c0 -8 5 -15 10 -15 6 0 10 7 10 15 0 8 -4 15 -10 15 -5 0
-10 -7 -10 -15z"/>
<path d="M9366 4192 c-3 -6 -1 -14 5 -17 15 -10 25 3 12 16 -7 7 -13 7 -17 1z"/>
<path d="M9386 3844 c-14 -72 -17 -141 -6 -169 l12 -30 10 25 c16 42 18 138 4
172 l-14 31 -6 -29z"/>
<path d="M9357 3481 c-10 -92 -9 -223 2 -217 13 8 23 204 13 246 -8 33 -9 32
-15 -29z"/>
<path d="M9327 3130 c-4 -35 -7 -87 -7 -115 0 -38 -4 -55 -15 -59 -22 -8 -19
-36 4 -36 23 0 28 19 37 141 4 58 3 103 -3 113 -8 14 -11 4 -16 -44z"/>
<path d="M9195 2887 c-27 -17 -51 -35 -53 -39 -2 -4 -8 -8 -14 -8 -10 0 -85
-54 -103 -75 -5 -6 -19 -17 -30 -23 -11 -6 -14 -12 -7 -12 13 0 195 120 200
132 2 5 9 8 15 8 7 0 23 12 36 25 31 33 17 31 -44 -8z"/>
<path d="M9301 2800 c1 -55 1 -55 10 -17 6 24 5 45 -1 55 -7 12 -9 2 -9 -38z"/>
<path d="M7816 2775 c-26 -39 -18 -52 9 -15 28 38 29 40 16 40 -5 0 -16 -11
-25 -25z"/>
<path d="M7634 2676 c-10 -7 -31 -16 -46 -20 -16 -3 -28 -11 -28 -16 0 -15 23
-12 46 5 10 8 27 15 36 15 19 0 32 16 20 24 -5 3 -17 -1 -28 -8z"/>
<path d="M9264 2676 c-3 -9 -11 -16 -18 -16 -6 0 -24 -14 -40 -30 -16 -17 -33
-30 -38 -30 -4 0 -16 -8 -27 -17 -45 -42 -80 -72 -141 -118 -36 -27 -72 -56
-81 -64 -9 -9 -26 -23 -39 -31 -12 -8 -29 -21 -36 -28 -10 -9 -19 -10 -33 -3
-17 9 -20 7 -26 -18 -3 -17 -19 -45 -35 -63 -16 -18 -26 -35 -23 -38 3 -3 8 1
10 8 3 6 10 12 17 12 6 0 19 8 28 18 30 32 73 68 178 146 58 44 110 84 115 90
6 6 33 29 60 51 130 104 159 131 146 139 -6 4 -14 0 -17 -8z"/>
<path d="M7507 2623 c-9 -2 -15 -8 -12 -13 6 -10 45 -1 45 11 0 9 -4 10 -33 2z"/>
<path d="M7430 2590 c-8 -5 -12 -12 -8 -15 9 -9 59 6 52 16 -7 12 -25 11 -44
-1z"/>
<path d="M7355 2556 c-11 -7 -32 -16 -47 -20 -16 -3 -28 -11 -28 -16 0 -15 46
-12 62 3 7 8 26 17 41 21 15 3 27 11 27 16 0 14 -32 12 -55 -4z"/>
<path d="M7676 2499 c-8 -42 -8 -49 3 -49 14 0 25 60 13 72 -6 6 -12 -2 -16
-23z"/>
<path d="M8816 2478 c-9 -34 -7 -88 3 -88 11 0 21 36 21 78 0 37 -15 43 -24
10z"/>
<path d="M7651 2390 l1 -45 8 35 c5 20 5 39 -1 45 -5 5 -9 -8 -8 -35z"/>
<path d="M7620 1953 c0 -21 -3 -69 -6 -108 -3 -45 -2 -65 4 -55 14 22 24 188
12 195 -6 4 -10 -9 -10 -32z"/>
<path d="M9534 5756 c-14 -36 2 -46 79 -46 74 0 113 14 99 37 -4 6 -44 14 -89
18 -71 7 -84 5 -89 -9z"/>
<path d="M11130 5413 c-36 -6 -48 -27 -41 -69 8 -47 31 -58 31 -15 0 21 5 31
15 31 10 0 15 -10 15 -31 0 -49 24 -29 32 26 9 67 8 68 -52 58z"/>
<path d="M10970 5391 c-21 -6 -25 -13 -25 -46 0 -38 2 -40 34 -43 40 -4 48 6
47 56 -1 39 -12 46 -56 33z"/>
<path d="M10935 5272 c-57 -10 -36 -48 23 -43 20 1 80 6 132 9 73 5 95 10 95
22 0 11 -21 14 -115 15 -64 0 -124 -2 -135 -3z"/>
<path d="M11094 5189 c-4 -6 -8 -33 -10 -60 -4 -53 13 -66 38 -31 7 10 21 21
31 25 14 5 16 11 8 24 -7 13 -5 23 6 35 15 17 14 18 -25 18 -22 0 -44 -5 -48
-11z"/>
<path d="M10957 5164 c-8 -8 1 -24 14 -24 5 0 9 7 9 15 0 15 -12 20 -23 9z"/>
<path d="M10967 5043 c-11 -10 -8 -43 3 -43 6 0 10 11 10 25 0 26 -2 29 -13
18z"/>
<path d="M11076 5034 c-9 -25 -7 -64 4 -64 6 0 10 18 10 40 0 43 -4 50 -14 24z"/>
<path d="M6625 3240 c3 -5 31 -10 61 -10 30 0 54 5 54 10 0 6 -27 10 -61 10
-37 0 -58 -4 -54 -10z"/>
<path d="M6629 3158 c-4 -7 -5 -194 -2 -201 3 -4 11 -3 19 4 10 8 11 15 4 24
-6 8 -8 39 -4 83 l7 71 41 10 41 9 -52 1 c-29 1 -54 0 -54 -1z"/>
<path d="M6747 3083 c-4 -6 -3 -30 1 -54 l8 -44 7 39 c6 39 -4 78 -16 59z"/>
<path d="M9508 2978 c5 -114 9 -122 11 -20 0 50 -3 92 -7 92 -4 0 -6 -33 -4
-72z"/>
<path d="M9478 2580 c-7 -24 -3 -38 8 -28 3 4 4 17 2 30 l-3 23 -7 -25z"/>
<path d="M7880 1868 c0 -19 18 -43 25 -36 9 9 -4 48 -16 48 -5 0 -9 -6 -9 -12z"/>
<path d="M3362 7748 c3 -7 20 -16 39 -19 19 -3 47 -11 62 -18 16 -6 43 -11 60
-11 18 -1 43 -7 57 -15 14 -8 36 -14 49 -15 23 0 105 -21 166 -42 17 -5 48
-14 70 -18 52 -11 118 -28 181 -48 49 -15 84 -12 84 6 0 9 -97 42 -125 42 -9
0 -38 7 -64 14 -25 8 -71 22 -101 30 -30 8 -80 22 -111 30 -31 9 -64 16 -75
16 -10 0 -39 6 -64 14 -149 47 -236 60 -228 34z"/>
<path d="M13100 6534 c-9 -10 -10 -18 -2 -26 12 -12 32 -2 32 17 0 21 -16 26
-30 9z"/>
<path d="M13433 6493 c-17 -3 -23 -11 -23 -31 0 -26 0 -26 14 -6 11 15 23 20
45 16 24 -3 31 0 31 12 0 16 -18 18 -67 9z"/>
<path d="M10166 6313 c-9 -10 -7 -83 3 -83 11 0 21 25 21 55 0 25 -12 39 -24
28z"/>
<path d="M12890 6311 l-35 -7 35 -8 c46 -10 125 -4 125 9 0 12 -76 16 -125 6z"/>
<path d="M13277 6314 c-14 -14 -6 -24 19 -24 16 0 24 5 22 13 -5 14 -31 21
-41 11z"/>
<path d="M13215 6280 c-3 -5 3 -10 14 -10 12 0 21 5 21 10 0 6 -6 10 -14 10
-8 0 -18 -4 -21 -10z"/>
<path d="M13168 6268 c9 -9 15 -9 24 0 9 9 7 12 -12 12 -19 0 -21 -3 -12 -12z"/>
<path d="M10055 6260 c-9 -15 -1 -23 21 -18 15 3 16 4 1 16 -11 9 -17 10 -22
2z"/>
<path d="M9935 6250 c-18 -7 -19 -8 -2 -15 9 -4 29 -4 44 0 21 5 24 8 12 16
-17 10 -27 10 -54 -1z"/>
<path d="M12565 6251 c-16 -7 -14 -9 15 -14 36 -8 46 -4 35 12 -7 12 -21 13
-50 2z"/>
<path d="M12440 6243 c8 -3 22 -9 31 -14 11 -6 21 -4 29 6 11 13 6 15 -31 14
-24 0 -37 -3 -29 -6z"/>
<path d="M12265 6220 c-3 -5 3 -10 15 -10 12 0 18 5 15 10 -3 6 -10 10 -15 10
-5 0 -12 -4 -15 -10z"/>
<path d="M12873 6223 c-29 -2 -53 -8 -53 -14 0 -15 182 -7 188 9 4 12 -16 13
-135 5z"/>
<path d="M12742 6204 c1 -9 9 -19 16 -22 9 -3 13 2 10 14 -1 9 -9 19 -16 22
-9 3 -13 -2 -10 -14z"/>
<path d="M12584 6169 c-4 -7 -23 -9 -50 -5 -55 7 -141 -3 -122 -15 7 -5 56 -7
108 -4 75 3 96 8 98 20 4 17 -23 21 -34 4z"/>
<path d="M12265 6131 c-3 -5 -2 -12 3 -15 12 -7 52 4 52 15 0 12 -47 12 -55 0z"/>
<path d="M12393 6063 c20 -2 54 -2 75 0 20 2 3 4 -38 4 -41 0 -58 -2 -37 -4z"/>
<path d="M12485 5983 c-22 -2 -44 -9 -50 -14 -6 -6 21 -9 78 -7 48 2 88 8 90
13 2 11 -54 15 -118 8z"/>
<path d="M12245 5950 c-4 -6 16 -10 52 -10 41 0 54 3 43 10 -20 13 -87 13 -95
0z"/>
<path d="M0 5830 c0 -15 13 -18 113 -24 68 -4 87 -2 87 8 0 19 -32 26 -122 26
-47 0 -78 -4 -78 -10z"/>
<path d="M353 5535 c0 -22 2 -30 4 -17 2 12 2 30 0 40 -3 9 -5 -1 -4 -23z"/>
<path d="M10155 5438 c-3 -8 -4 -61 -3 -119 3 -88 6 -104 20 -107 15 -3 17 10
20 100 2 57 6 110 8 118 6 19 -38 27 -45 8z"/>
<path d="M13467 4756 c-5 -11 -107 -14 -609 -18 -578 -5 -675 -10 -637 -34 8
-5 282 -9 647 -9 l632 0 0 37 c0 38 -22 54 -33 24z"/>
<path d="M10235 4511 c-30 -13 72 -24 110 -12 l30 9 -31 1 c-17 1 -44 3 -60 6
-16 2 -38 1 -49 -4z"/>
<path d="M10472 4482 c-10 -6 -2 -11 25 -15 56 -10 101 -8 108 3 4 6 -8 10
-28 10 -19 0 -47 2 -63 5 -16 3 -35 2 -42 -3z"/>
<path d="M10915 4410 c45 -11 93 -11 100 0 4 6 -19 10 -62 9 -52 -1 -61 -3
-38 -9z"/>
<path d="M11142 4391 c-16 -10 16 -21 61 -21 37 0 34 16 -4 24 -39 8 -41 8
-57 -3z"/>
<path d="M11260 4361 c0 -13 26 -21 68 -21 20 0 55 -7 77 -15 22 -8 61 -14 86
-15 26 0 60 -7 75 -15 16 -8 43 -15 60 -15 17 0 51 -7 74 -15 23 -8 61 -15 84
-15 22 0 50 -7 60 -15 11 -8 34 -15 50 -15 17 -1 42 -7 56 -15 14 -8 38 -14
53 -15 16 0 38 -5 50 -12 12 -6 40 -15 62 -19 49 -9 130 -33 235 -69 19 -7 51
-16 70 -20 19 -4 51 -14 70 -20 19 -7 51 -18 70 -25 19 -7 51 -18 70 -24 19
-7 50 -17 69 -21 18 -5 38 -13 44 -19 6 -6 20 -11 32 -11 12 0 30 -7 41 -15
10 -8 27 -15 36 -15 17 0 67 -19 121 -46 16 -8 35 -14 42 -14 7 0 27 -7 44
-15 17 -8 45 -22 62 -30 17 -8 37 -15 46 -15 8 0 27 -6 41 -13 15 -8 43 -21
62 -29 73 -32 136 -60 150 -67 9 -5 30 -12 48 -16 28 -6 32 -4 32 14 0 12 -6
21 -15 21 -8 0 -31 7 -52 16 -21 9 -51 22 -68 29 -53 22 -109 46 -138 61 -16
8 -35 14 -44 14 -8 0 -27 6 -41 14 -15 8 -45 21 -67 29 -97 36 -131 50 -150
60 -11 5 -33 14 -50 18 -16 4 -55 17 -85 29 -30 12 -66 24 -80 27 -14 2 -38
10 -55 18 -36 15 -88 33 -130 45 -27 8 -146 46 -220 72 -39 13 -79 24 -135 38
-25 7 -65 18 -90 26 -25 8 -56 14 -70 14 -14 1 -36 7 -50 15 -14 8 -41 14 -61
15 -20 0 -50 7 -65 15 -16 8 -47 15 -70 15 -22 0 -45 5 -51 11 -6 6 -39 13
-74 16 -35 3 -78 11 -96 19 -17 8 -46 14 -65 14 -18 0 -51 7 -73 15 -44 16
-145 20 -145 6z"/>
<path d="M610 4149 c-41 -5 -194 -13 -340 -18 -146 -5 -266 -9 -267 -10 -2 0
-3 -7 -3 -15 0 -12 37 -14 243 -10 153 3 268 10 312 20 49 10 155 15 360 16
207 2 296 7 310 15 16 10 -36 12 -260 11 -154 -1 -314 -5 -355 -9z"/>
<path d="M11121 4121 c-10 -6 -10 -10 -1 -16 13 -8 24 -1 19 14 -3 6 -10 7
-18 2z"/>
<path d="M617 4093 c-9 -2 -15 -9 -12 -14 8 -11 275 -12 293 0 10 6 8 10 -10
14 -26 8 -243 7 -271 0z"/>
<path d="M10984 3926 c-15 -12 -16 -17 -7 -27 10 -10 15 -9 28 1 16 13 21 40
7 40 -5 0 -17 -6 -28 -14z"/>
<path d="M0 3755 c0 -12 14 -15 68 -15 37 0 77 3 89 6 45 12 10 24 -73 24 -68
0 -84 -3 -84 -15z"/>
<path d="M1495 3761 c-25 -6 -27 -8 -10 -12 29 -8 106 2 99 12 -6 10 -44 10
-89 0z"/>
<path d="M785 3730 c-27 -4 -104 -11 -170 -15 -66 -4 -136 -11 -155 -17 -19
-5 -112 -13 -207 -17 -169 -6 -202 -12 -173 -32 18 -12 320 -1 364 14 17 5 99
13 181 17 129 6 272 21 353 36 13 3 20 9 17 14 -7 11 -135 11 -210 0z"/>
<path d="M9792 3728 c-14 -14 -16 -38 -3 -38 23 0 41 14 41 31 0 21 -20 25
-38 7z"/>
<path d="M1209 3704 c-17 -21 8 -26 110 -23 83 4 112 11 99 25 -4 3 -49 7
-102 9 -72 2 -98 0 -107 -11z"/>
<path d="M564 3639 c-11 -18 14 -27 64 -22 70 6 93 13 87 23 -9 14 -142 13
-151 -1z"/>
<path d="M10700 3463 c0 -5 -34 -44 -75 -88 -41 -44 -75 -83 -75 -87 0 -4 -6
-13 -13 -20 -7 -7 -37 -44 -67 -83 -30 -38 -57 -72 -60 -75 -17 -14 -90 -118
-90 -128 0 -31 33 -4 94 78 27 36 54 70 60 75 6 6 36 42 65 80 30 39 58 72 63
73 4 2 8 7 8 12 0 9 20 34 83 105 39 45 46 65 22 65 -8 0 -15 -3 -15 -7z"/>
<path d="M1276 3191 c-3 -5 -22 -12 -41 -15 -39 -8 -65 -40 -46 -59 9 -9 17
-8 31 1 10 6 37 15 60 18 61 10 82 64 25 64 -13 0 -26 -4 -29 -9z"/>
<path d="M11017 2833 c-8 -10 -19 -46 -23 -80 -6 -53 -4 -64 10 -69 23 -9 23
-7 40 71 19 89 9 117 -27 78z"/>
<path d="M1336 1391 c-4 -5 -24 -12 -46 -16 -22 -4 -42 -10 -45 -15 -3 -4 -22
-11 -42 -15 -36 -6 -146 -41 -278 -87 -33 -11 -82 -26 -110 -33 -27 -7 -86
-24 -130 -38 -44 -14 -127 -40 -185 -57 -58 -17 -115 -35 -128 -41 -13 -5 -31
-9 -40 -9 -9 0 -29 -6 -43 -14 -14 -7 -46 -16 -70 -20 -25 -4 -60 -16 -78 -27
-31 -19 -33 -22 -18 -37 14 -14 24 -14 64 -5 103 24 138 35 148 44 5 5 17 9
26 9 18 0 104 24 159 45 19 8 69 23 110 35 41 12 83 25 92 31 10 5 26 9 36 9
20 0 127 35 154 50 9 5 35 13 58 16 22 4 43 11 46 15 3 5 15 9 27 9 12 0 35 7
51 15 15 8 34 15 40 15 17 0 149 41 161 50 6 4 28 11 50 15 44 8 98 42 90 56
-8 12 -92 12 -99 0z"/>
<path d="M1800 1076 c-36 -12 -92 -30 -125 -40 -57 -17 -74 -23 -155 -58 -19
-9 -50 -19 -67 -22 -18 -4 -35 -12 -38 -17 -4 -5 -15 -9 -26 -9 -36 0 -100
-43 -97 -65 2 -15 9 -19 28 -17 28 4 132 37 158 52 9 5 46 18 82 30 36 11 74
25 85 30 11 5 52 19 90 31 39 12 75 26 80 30 6 4 27 10 48 14 56 11 77 66 24
64 -12 -1 -51 -11 -87 -23z"/>
<path d="M611 1005 c-18 -8 -41 -15 -50 -15 -29 0 -106 -45 -109 -64 -4 -17 1
-18 49 -13 29 4 57 11 63 17 5 5 18 10 28 10 34 0 118 44 115 60 -3 21 -54 23
-96 5z"/>
<path d="M176 915 c-81 -29 -137 -60 -134 -75 5 -25 38 -21 138 13 79 27 96
36 98 55 3 19 -1 22 -30 22 -18 -1 -51 -7 -72 -15z"/>
<path d="M8676 845 c-27 -31 -65 -77 -84 -103 -20 -26 -41 -52 -47 -58 -22
-24 -62 -71 -100 -119 -22 -27 -46 -56 -52 -63 -7 -7 -34 -41 -60 -75 -27 -34
-55 -69 -63 -77 -8 -9 -26 -30 -40 -48 -14 -18 -54 -70 -90 -115 -36 -46 -76
-97 -90 -116 -14 -18 -31 -39 -37 -46 -19 -20 -16 -25 15 -25 29 0 81 48 120
110 9 14 19 27 22 30 4 3 30 37 59 75 30 39 57 72 60 75 4 3 29 34 56 70 27
36 59 76 71 90 45 51 84 98 168 205 48 61 97 121 109 135 42 47 67 84 67 97 0
29 -38 10 -84 -42z"/>
</g>
</svg>
