 <svg  version="1.0" xmlns="http://www.w3.org/2000/svg"  width="191.000000pt" height="191.000000pt" viewBox="0 0 191.000000 191.000000"  preserveAspectRatio="xMidYMid meet">  <g transform="translate(0.000000,191.000000) scale(0.050000,-0.050000)" fill="#ffcc00" stroke="none"> <path d="M1731 3270 c-94 -58 -127 -107 -88 -132 21 -14 22 -17 1 -18 -17 0 -24 -20 -20 -55 3 -31 17 -53 31 -50 27 5 35 -75 10 -106 -9 -10 -12 -17 -7 -14 13 7 62 -38 62 -57 0 -10 -13 -18 -30 -18 -16 0 -30 9 -30 19 0 11 -14 15 -30 8 -22 -8 -27 -2 -18 20 9 23 1 29 -28 24 -76 -15 -119 61 -67 116 43 46 43 47 5 81 -45 41 -149 -6 -129 -58 6 -17 -7 -29 -34 -33 -71 -11 -96 -69 -50 -112 36 -33 37 -33 12 0 -22 30 -21 35 6 35 19 0 27 11 21 27 -7 18 8 31 39 37 45 9 48 5 32 -37 -17 -45 -5 -58 47 -49 10 2 11 -6 4 -18 -7 -11 -21 -15 -31 -9 -11 6 -19 1 -19 -12 0 -13 -14 -18 -31 -11 -20 7 -26 4 -17 -12 9 -15 4 -19 -15 -11 -18 6 -30 0 -30 -16 0 -20 9 -22 37 -7 42 23 76 9 76 -31 0 -17 15 -23 38 -17 42 11 186 -56 147 -69 -14 -5 -20 -17 -14 -27 6 -10 2 -18 -10 -18 -11 0 -21 -7 -21 -17 0 -9 27 -12 60 -7 55 8 87 44 40 44 -11 0 -20 7 -20 15 0 9 86 17 190 18 105 1 190 -6 190 -15 0 -25 -71 -58 -122 -58 -25 0 -66 -19 -91 -43 -48 -45 -427 -76 -427 -35 0 10 25 18 55 19 49 1 46 4 -25 29 -51 18 -86 22 -99 9 -12 -12 -2 -19 27 -19 39 0 43 -5 22 -30 -19 -22 -19 -30 -1 -30 13 0 18 -9 11 -20 -7 -11 1 -14 19 -8 44 17 38 -24 -10 -69 -41 -38 -23 -123 27 -123 9 0 11 9 4 20 -7 11 1 15 18 8 71 -27 220 112 171 160 -15 16 -18 12 -8 -13 8 -21 4 -35 -10 -35 -13 0 -18 -9 -11 -20 8 -13 -12 -19 -52 -16 -37 3 -68 -5 -73 -19 -9 -27 -65 -35 -64 -10 2 49 97 124 169 135 89 14 181 -29 130 -60 -18 -11 -21 -8 -10 10 10 17 8 21 -6 12 -12 -7 -17 -26 -11 -42 6 -16 -2 -55 -18 -87 -27 -54 -27 -57 8 -48 39 10 90 81 81 111 -3 10 3 12 14 5 23 -14 18 -46 -15 -106 -13 -25 -18 -45 -10 -45 8 0 4 -11 -9 -24 -13 -13 -24 -44 -24 -68 0 -47 -115 -173 -143 -156 -9 6 -17 1 -17 -11 0 -55 126 11 200 105 24 30 50 50 58 45 20 -12 122 148 122 192 0 19 -10 41 -23 49 -13 8 -18 6 -11 -5 6 -10 3 -32 -6 -47 -27 -44 -58 56 -39 123 8 30 10 59 4 65 -6 7 -1 12 12 12 13 0 23 -10 23 -21 0 -12 11 -15 25 -6 15 8 12 -1 -5 -23 -16 -21 -20 -31 -7 -24 13 8 28 3 34 -11 5 -14 11 0 11 30 1 33 12 53 27 50 14 -3 23 12 20 35 -4 35 -1 34 19 -7 14 -28 16 -51 5 -60 -11 -7 -22 -35 -26 -62 -4 -26 -16 -71 -27 -100 -23 -56 -26 -85 -32 -295 -3 -117 -11 -145 -39 -155 -19 -6 -62 -48 -95 -93 -33 -45 -96 -108 -141 -138 -82 -57 -221 -280 -193 -311 8 -9 4 -10 -9 -2 -75 42 -123 -264 -110 -693 l5 -155 -129 -250 c-71 -137 -118 -249 -106 -249 38 0 155 121 140 145 -8 13 -2 17 16 10 22 -8 28 2 22 42 -9 63 108 147 137 100 16 -26 69 72 60 110 -2 10 22 11 52 3 31 -8 67 -15 81 -16 16 0 7 -30 -25 -86 -60 -103 -65 -143 -10 -88 22 22 40 48 40 57 0 21 70 103 88 103 13 0 -84 -202 -106 -220 -6 -5 -15 -23 -19 -40 -23 -92 -22 -104 3 -50 16 33 57 85 93 116 48 43 58 63 42 83 -16 19 -12 33 14 53 31 25 32 24 10 -4 -31 -40 -11 -62 36 -37 23 12 39 12 46 -2 5 -11 7 -9 4 5 -3 15 -17 23 -31 20 -15 -3 -20 6 -13 25 7 17 1 31 -13 31 -15 0 -16 6 -4 15 11 8 33 39 48 69 15 30 35 50 43 45 32 -20 63 113 36 155 -12 18 -16 14 -17 -15 0 -53 -57 -133 -83 -117 -14 8 -13 20 1 34 12 12 22 31 21 43 0 30 -47 -54 -48 -87 -1 -16 -21 -30 -45 -32 -25 -2 -39 6 -32 17 8 12 -1 15 -21 7 -18 -7 -33 -4 -33 7 0 10 11 19 23 19 13 0 19 5 12 11 -6 7 -38 -2 -71 -19 -65 -33 -97 -22 -60 22 18 22 17 27 -6 22 -15 -3 -26 5 -23 19 3 14 -3 25 -14 25 -10 0 -21 -20 -25 -45 -10 -71 -45 -44 -52 40 -5 60 -2 70 19 50 14 -14 34 -25 45 -25 11 0 2 14 -19 31 -27 22 -32 35 -14 42 18 8 17 18 -6 41 -22 22 -28 54 -21 104 6 39 11 83 11 96 1 14 15 20 31 13 17 -6 30 -1 30 12 0 13 9 18 20 11 11 -7 20 -2 20 10 0 14 -16 18 -40 10 -31 -10 -37 -5 -28 19 16 42 -5 121 -42 158 -37 37 -8 133 40 133 16 0 30 14 30 31 0 17 8 26 18 20 11 -6 35 25 54 69 20 44 43 80 52 80 9 0 16 10 16 21 0 12 -7 17 -16 11 -9 -5 -16 12 -16 37 0 30 9 43 26 37 14 -6 26 3 26 19 0 33 77 73 115 60 14 -5 20 -18 13 -29 -8 -12 4 -11 29 2 23 13 52 41 63 62 23 43 2 54 -34 18 -52 -52 -59 -2 -8 60 108 131 143 -57 38 -203 -24 -34 -33 -56 -20 -48 15 10 20 5 12 -15 -17 -45 -107 -97 -145 -83 -30 10 -30 8 1 -16 26 -19 29 -32 12 -49 -12 -12 -29 -61 -37 -108 -8 -47 -20 -105 -26 -129 -7 -32 -2 -42 24 -38 22 4 31 22 27 53 -8 67 32 23 67 -74 15 -43 28 -64 29 -48 5 70 42 -78 55 -218 10 -119 16 -139 27 -92 l13 60 3 -65 c1 -36 10 -65 20 -65 10 0 25 -66 32 -147 15 -161 -22 -268 -85 -244 -20 8 -26 2 -19 -17 23 -58 -37 -106 -81 -67 -49 45 -69 25 -53 -56 7 -38 3 -70 -10 -78 -35 -22 -25 -51 17 -51 22 0 50 20 64 45 13 25 62 82 109 128 97 94 108 86 108 -76 0 -62 8 -95 20 -87 12 7 15 23 7 34 -8 14 -4 16 10 8 13 -8 18 -23 12 -33 -6 -11 -3 -19 7 -19 11 0 24 27 31 60 15 76 14 91 -9 85 -18 -5 -28 31 -45 160 -9 61 -2 81 37 112 36 28 42 43 25 60 -18 18 -29 12 -48 -22 -23 -40 -26 -28 -26 97 -1 114 -9 149 -40 177 -32 29 -38 61 -37 203 3 223 35 217 39 -7 2 -96 7 -148 12 -116 10 67 65 160 65 109 0 -16 -10 -40 -22 -52 -12 -12 -16 -32 -9 -44 9 -15 23 -12 44 9 28 28 34 27 61 -5 16 -20 23 -25 16 -11 -18 36 22 31 85 -10 l54 -35 -44 63 c-25 35 -44 80 -44 100 2 33 4 33 22 -5 23 -48 128 -44 109 4 -6 15 0 33 12 40 14 9 17 4 8 -14 -7 -15 -2 -11 12 10 14 20 46 62 71 93 45 55 63 132 25 109 -11 -7 -15 1 -8 17 7 18 -5 34 -31 43 -48 15 -52 38 -14 74 39 36 2 109 -65 127 -28 8 -41 18 -27 23 14 5 19 19 12 31 -8 12 -4 15 10 7 33 -21 29 39 -8 110 -17 33 -52 68 -77 77 -35 14 -49 38 -58 102 -14 108 -28 120 -142 125 l-94 4 13 200 c8 110 18 207 23 215 20 36 40 -10 41 -96 1 -52 10 -102 21 -113 12 -12 16 -1 9 33 -5 28 0 63 12 77 28 34 6 177 -25 162 -12 -6 -6 2 13 18 19 16 35 39 35 51 0 29 7 29 91 -6 38 -16 72 -28 74 -27 3 1 45 -19 94 -44 l90 -45 -65 73 c-84 96 -82 98 36 52 55 -22 100 -32 100 -24 0 9 -46 33 -102 53 -56 20 -106 49 -112 64 -6 15 -34 27 -63 27 -77 1 -123 34 -83 60 17 11 20 20 7 20 -12 0 -33 -13 -47 -30 -25 -30 -121 -42 -119 -15 1 28 53 84 66 71 7 -7 13 -2 13 12 0 17 45 23 157 20 87 -2 167 2 178 9 12 7 26 -1 32 -17 13 -34 -3 -90 -26 -90 -8 0 -36 -18 -61 -40 -25 -22 -36 -40 -24 -40 11 0 36 15 54 32 24 25 57 31 131 23 54 -5 99 -2 99 6 0 9 32 35 70 59 39 24 65 52 59 62 -6 10 -2 18 10 18 11 0 20 7 18 15 -2 8 2 29 8 45 31 80 28 132 -9 135 -20 1 -36 -6 -36 -17 0 -11 9 -15 20 -8 11 7 20 -10 20 -39 0 -28 -9 -51 -20 -51 -11 0 -19 -7 -18 -15 6 -36 -4 -62 -42 -105 -22 -25 -40 -38 -40 -28 0 10 -7 8 -15 -4 -8 -13 -37 -30 -65 -38 -44 -14 -47 -12 -23 16 23 28 21 31 -16 24 -23 -4 -37 0 -31 10 6 10 -5 27 -25 38 -19 12 -24 21 -11 21 13 1 29 -8 36 -19 18 -29 125 38 137 85 6 22 19 34 30 27 43 -27 82 9 59 55 -12 24 -29 57 -36 73 -8 17 -44 35 -80 40 -42 6 -72 25 -82 50 -13 36 -15 36 -17 4 -2 -55 -100 -174 -143 -174 -21 0 -38 -11 -38 -23 0 -13 -7 -17 -15 -9 -8 9 -1 26 16 39 16 12 30 41 29 63 -1 46 45 110 80 110 69 0 98 78 49 131 -46 49 -99 59 -103 19 -2 -32 -74 -74 -99 -58 -17 10 -19 3 -9 -24 11 -30 9 -33 -11 -13 -39 39 -40 90 -1 75 23 -8 19 3 -13 37 -45 47 -183 84 -183 48 0 -10 -8 -12 -19 -6 -10 6 -25 1 -33 -12 -10 -16 -1 -20 29 -12 26 7 43 2 43 -12 0 -13 9 -10 20 7 13 21 19 22 20 5 0 -14 22 -36 48 -48 31 -14 45 -33 38 -51 -9 -24 -15 -24 -28 -3 -12 20 -19 18 -29 -8 -7 -19 -20 -31 -27 -26 -8 5 -11 -19 -6 -53 6 -40 2 -57 -12 -49 -11 8 -25 -2 -30 -22 -8 -31 -10 -31 -12 -1 -1 18 7 39 18 46 11 7 3 30 -20 55 -22 23 -40 52 -40 64 0 11 9 8 20 -9 14 -21 19 -22 20 -4 0 14 -13 30 -30 37 -16 6 -25 19 -19 29 17 27 -3 22 -82 -22 -40 -23 -65 -30 -57 -15 8 14 -5 7 -30 -14 -37 -33 -53 -36 -103 -17 -53 20 -59 19 -59 -17 0 -23 -11 -37 -25 -32 -34 11 -36 130 -2 143 15 6 27 -2 27 -19 0 -16 9 -29 20 -29 18 0 28 28 23 64 -6 34 73 55 97 26 21 -25 28 -25 53 1 38 37 75 38 60 0 -6 -17 -3 -35 8 -42 10 -6 19 7 19 29 0 52 -30 69 -78 43 -26 -14 -44 -14 -52 -1 -19 31 -52 23 -139 -30z m706 -135 c-21 -40 -20 -42 9 -18 18 14 48 23 68 19 26 -5 18 -15 -33 -39 -86 -42 -162 4 -91 55 56 41 75 34 47 -17z m-378 -90 c98 -215 12 -370 -164 -295 -19 8 -47 10 -61 4 -15 -6 -27 6 -29 30 -1 22 -18 63 -37 92 -40 61 -53 159 -23 177 12 7 15 4 8 -8 -7 -11 5 -25 27 -31 21 -5 37 -2 34 8 -18 78 210 99 245 23z m311 -48 c-4 -45 -22 -97 -39 -116 -17 -19 -27 -39 -21 -44 6 -6 -8 -28 -31 -48 -23 -21 -39 -29 -35 -18 3 10 -3 20 -14 22 -11 2 -17 -7 -14 -19 4 -13 -14 -5 -39 17 -30 25 -37 27 -21 6 31 -40 4 -64 -30 -27 -19 21 -18 32 5 51 16 13 24 31 18 41 -18 28 31 180 57 176 46 -5 76 2 67 17 -5 8 17 17 48 19 56 4 57 2 49 -77z m276 -31 c-13 -5 -19 -22 -12 -38 9 -25 17 -24 52 6 37 33 40 33 28 2 -7 -19 -4 -40 7 -47 25 -15 24 -49 -1 -49 -11 0 -19 7 -18 15 7 45 -9 37 -73 -34 -62 -68 -80 -77 -135 -69 -35 6 -75 11 -89 13 -37 3 8 50 115 119 65 43 76 55 40 47 -27 -6 -39 -5 -25 1 14 6 21 18 17 25 -5 7 20 14 55 16 35 1 52 -2 39 -7z m-854 -691 c-16 -83 -36 -120 -52 -95 -8 13 -2 50 14 82 35 69 50 75 38 13z m368 -415 c27 -17 27 -19 0 -20 -24 -1 -23 -6 5 -22 48 -28 45 -154 -5 -218 -22 -27 -40 -41 -40 -30 -1 11 -14 -9 -30 -45 -28 -64 -65 -76 -123 -39 -28 17 2 152 41 184 28 23 60 97 35 82 -9 -6 -14 10 -11 34 2 24 5 55 6 69 2 30 79 33 122 5z m130 -260 c7 -12 20 -16 29 -10 28 17 -37 -175 -73 -214 -25 -29 -37 -31 -49 -11 -9 14 -17 16 -17 4 0 -12 9 -30 21 -42 15 -15 6 -31 -28 -53 -43 -28 -52 -29 -74 -3 -13 16 -34 29 -46 28 -13 0 -7 -9 12 -21 42 -24 45 -71 7 -109 -48 -48 -123 31 -76 81 32 36 32 36 -1 11 -61 -45 -38 6 48 109 45 55 104 134 130 175 47 74 92 95 117 55z m-310 -221 c0 -36 -8 -56 -20 -49 -11 7 -20 34 -20 61 0 27 9 49 20 49 11 0 20 -28 20 -61z m394 -14 c16 -19 23 -24 16 -10 -7 14 -3 25 9 25 11 0 21 -13 21 -30 0 -16 -9 -30 -20 -30 -11 0 -20 -9 -20 -20 0 -47 -122 -150 -141 -119 -13 20 -19 22 -21 4 -2 -14 -4 -36 -6 -50 -2 -14 -17 -24 -34 -23 -17 1 -31 -10 -31 -25 0 -15 12 -27 26 -27 48 0 29 -55 -22 -65 -28 -5 -45 -2 -39 8 6 9 1 17 -11 17 -11 0 -21 10 -21 21 0 12 8 17 17 11 9 -6 16 3 16 20 0 20 -6 23 -20 9 -13 -13 -29 -13 -46 2 -21 17 -17 28 18 57 35 29 51 31 73 13 23 -18 26 -17 18 7 -9 26 13 62 104 174 11 13 20 34 20 45 0 34 63 24 94 -14z m60 -173 c-2 -12 -12 -28 -22 -35 -9 -7 -10 -23 -2 -37 12 -19 19 -18 34 3 14 21 17 19 12 -9 -3 -20 -14 -35 -23 -34 -9 2 -27 -10 -40 -26 -13 -16 -57 -35 -98 -43 -102 -18 -101 34 1 131 73 69 146 95 138 50z m-538 -94 c5 -38 2 -42 -15 -18 -11 17 -21 21 -21 10 0 -11 -9 -7 -19 9 -10 16 -14 37 -8 46 19 31 57 3 63 -47z m-396 -640 c0 -11 -8 -15 -18 -9 -9 6 -30 -5 -45 -23 -18 -23 -19 -29 -2 -19 14 9 25 7 25 -4 0 -10 -13 -24 -30 -30 -28 -11 -46 64 -21 89 18 19 91 15 91 -4z"/> <path d="M2123 3202 c-19 -12 -18 -21 7 -42 21 -18 38 -20 52 -6 27 27 -25 69 -59 48z"/> <path d="M1146 2847 c-26 -10 -12 -68 23 -92 13 -9 10 -15 -9 -15 -27 -1 -27 -3 0 -22 24 -16 21 -18 -14 -8 -31 8 -50 1 -65 -28 -26 -48 -28 -83 -2 -43 15 24 28 20 72 -25 30 -30 61 -54 70 -54 9 0 30 -5 47 -12 18 -7 32 -2 32 10 0 12 -21 22 -47 22 -99 0 -123 71 -33 98 44 13 80 33 80 45 0 12 -14 16 -31 9 -18 -6 -26 -3 -19 8 7 11 3 36 -8 55 -19 32 -21 32 -23 -5 -1 -22 -7 -29 -12 -15 -6 14 -19 20 -29 14 -10 -6 -18 2 -18 18 0 17 16 34 35 39 24 6 25 10 5 10 -16 1 -41 -4 -54 -9z"/> <path d="M2691 2509 c-34 -36 -52 -44 -62 -27 -9 15 -7 19 6 11 11 -7 26 1 32 17 17 43 -14 37 -57 -10 -20 -22 -28 -40 -18 -40 10 0 5 -9 -11 -19 -17 -10 -24 -25 -16 -33 8 -7 26 -3 41 9 15 12 31 20 36 17 4 -4 40 23 78 60 39 36 58 66 44 66 -14 0 -47 -23 -73 -51z"/> <path d="M2159 683 c11 -21 15 -42 10 -48 -27 -26 -45 -135 -24 -148 12 -8 15 -4 7 10 -8 13 -6 23 5 23 11 0 23 -7 28 -15 5 -8 6 -4 2 10 -3 14 12 55 33 90 43 70 51 104 22 86 -10 -6 -22 -4 -27 4 -5 8 -6 4 -2 -10 3 -14 -3 -25 -14 -25 -10 0 -19 14 -19 30 0 17 -9 30 -21 30 -14 0 -14 -12 0 -37z"/> <path d="M1408 234 c-12 -14 -19 -41 -17 -60 3 -19 -2 -34 -11 -34 -18 0 -12 -94 7 -114 7 -7 13 7 13 32 0 24 7 40 15 35 8 -5 16 31 17 79 1 48 1 88 0 87 -1 0 -12 -12 -24 -25z"/> </g> </svg> 